<svg xmlns="http://www.w3.org/2000/svg" width="4973" height="1331" fill="none"><path fill="#ffffff" d="M2164.43 699.191c0-57.543-13.16-108.893-39.35-153.663-26.19-44.77-61.8-79.992-106.7-105.538-44.9-25.546-95.73-38.319-152.63-38.319-29.16 0-57.28 4.258-84.25 12.644-26.96 8.387-51.35 19.353-73.28 32.771-21.93 13.547-39.74 28.256-53.54 44.254-.39.516-.65.903-1.04 1.419V178.596h-112.63V984.84h112.63v-71.735c13.42 13.805 29.42 26.578 48.13 38.319 22.58 14.192 47.99 25.675 75.99 34.448 28.13 8.774 57.03 13.16 86.96 13.16 57.54 0 109.02-12.901 154.18-38.834 45.16-25.933 80.77-61.414 106.7-106.7 25.93-45.157 38.83-96.635 38.83-154.178v-.129ZM2029.35 799.31c-17.93 29.545-42.06 52.898-72.77 70.058-30.57 17.159-66.06 25.675-106.05 25.675-40 0-75.61-8.516-106.7-25.675-30.97-17.16-55.48-40.513-73.28-70.058-17.94-29.546-26.84-62.962-26.84-100.119 0-37.158 8.9-70.574 26.84-100.12 17.8-29.545 42.31-52.64 73.28-69.412 30.96-16.773 66.57-25.159 106.7-25.159 40.12 0 75.6 8.386 106.7 25.159 30.96 16.772 55.22 39.867 72.76 69.412 17.55 29.546 26.33 62.962 26.33 100.12 0 37.157-8.91 70.573-26.84 100.119h-.13ZM2489.3 178.596h-112.63v809.47h112.63v-809.47ZM3206.92 498.822c-12.39-16.514-28-31.738-47.1-45.801-21.93-15.999-47.61-28.643-77.15-37.803-29.55-9.161-61.8-13.676-96.77-13.676-57.67 0-109.02 12.773-154.17 38.319-45.29 25.545-80.77 60.768-106.7 105.538-25.94 44.898-38.84 96.119-38.84 153.662 0 57.543 12.52 109.022 37.68 154.179s59.6 80.766 103.34 106.699c43.74 25.933 93.67 38.835 149.92 38.835 32.13 0 62.71-4.774 91.86-14.192 29.16-9.419 55.61-21.934 79.35-37.158 23.74-15.353 42.71-32.255 56.9-50.834.64-.774 1.03-1.548 1.68-2.322v93.668h112.63V413.67h-112.63v85.152Zm-21.94 301.52c-17.54 29.545-41.8 52.64-72.76 69.412-30.97 16.773-66.58 25.159-106.7 25.159-40.13 0-75.48-8.386-106.06-25.159-30.58-16.772-54.7-39.867-72.25-69.412-17.55-29.546-26.19-63.22-26.19-101.152s8.77-69.283 26.19-98.442c17.55-29.158 41.55-52.382 72.25-69.413 30.58-17.159 65.93-25.674 106.06-25.674 40.12 0 75.6 8.644 106.7 25.674 30.96 17.16 55.22 40.255 72.76 69.413 17.55 29.159 26.19 61.93 26.19 98.442 0 36.513-8.77 71.606-26.19 101.152ZM4043.74 489.017c-11.49-12.515-25.42-24.385-42.06-35.351-23.74-15.612-50.71-28.256-80.9-37.803-30.32-9.418-62.57-14.192-96.76-14.192-58.32 0-110.32 12.902-155.86 38.835-45.54 25.933-81.28 61.284-107.21 106.054-25.94 44.899-38.84 96.12-38.84 153.662 0 57.543 12.77 108.893 38.32 153.663 25.55 44.899 60.9 80.25 106.05 106.054 45.16 25.933 97.41 38.835 156.38 38.835 31.35 0 61.67-4.774 90.83-14.192 29.15-9.418 55.09-21.934 77.67-37.158 21.8-14.708 39.22-30.577 52.51-47.35v87.733h112.63V178.338h-112.63v310.55l-.13.129Zm-21.94 313.002c-17.54 29.932-41.8 53.543-72.76 71.09-30.97 17.547-66.58 26.191-106.7 26.191-40.13 0-75.61-8.773-106.7-26.191-30.97-17.547-55.22-41.158-72.77-71.09-17.54-29.933-26.19-63.865-26.19-101.667 0-37.803 8.77-71.864 26.19-101.797 17.55-29.933 41.8-53.414 72.77-70.574 30.96-17.159 66.57-25.675 106.7-25.675 40.12 0 75.6 8.645 106.7 25.675 30.96 17.16 55.22 40.641 72.76 70.574 17.55 29.933 26.2 63.865 26.2 101.797 0 37.931-8.78 71.863-26.2 101.667ZM4951.13 567.46c-14.96-33.932-35.99-63.219-62.96-88.12-26.96-24.772-58.57-44.125-94.57-57.93-36.13-13.805-74.96-20.772-116.5-20.772-45.93 0-89.03 7.354-129.02 21.933-40.13 14.579-74.96 35.352-104.51 62.317-29.55 26.965-52.64 59.091-69.41 96.248-16.77 37.158-25.16 79.089-25.16 125.795 0 56.897 14.45 107.215 43.22 150.953 28.77 43.737 68.77 78.186 119.73 103.345 51.09 25.158 109.41 37.673 175.08 37.673 32.77 0 65.41-3.87 97.93-11.482 32.38-7.613 62.96-18.192 91.34-31.739 28.39-13.547 52.13-28.256 71.09-44.254l-53.54-82.057c-26.97 20.385-55.48 36.513-85.28 48.125-29.94 11.611-65.29 17.546-106.06 17.546-47.35 0-89.28-7.999-125.79-24.126-36.51-15.999-64.9-38.706-85.28-67.865-14.58-20.901-23.87-44.641-28.13-71.09h508.34l1.03-52.511c.77-40.77-6.45-78.185-21.29-112.118l-.26.129Zm-93.53 74.961h-391.19c4.38-19.869 11.35-37.674 20.9-53.027 17.8-28.772 42.96-50.189 75.48-63.994 32.38-13.805 70.57-20.772 114.31-20.772 29.93 0 57.93 5.418 84.25 16.385 26.19 10.967 48.12 25.933 65.67 44.899 17.54 18.966 27.74 40.512 30.58 64.51v11.999ZM1670.94 1191.14c-6.97-7.35-15.61-13.03-25.55-16.9-10.06-4-21.42-5.93-34.06-5.93h-70.19v160.5h70.19c12.64 0 24.13-1.94 34.19-5.94 10.06-4 18.58-9.55 25.55-16.77 6.96-7.23 12.25-15.61 15.99-25.42 3.62-9.8 5.55-20.51 5.55-32.12 0-11.62-1.8-22.07-5.55-31.74-3.61-9.68-9.03-18.19-15.99-25.55l-.13-.13Zm-7.75 80.25c-2.45 6.84-5.93 12.78-10.7 17.81-4.78 5.03-10.58 8.77-17.68 11.61-7.09 2.71-15.35 4.13-24.64 4.13h-44.25v-112.77h44.25c9.29 0 17.55 1.42 24.51 4.13 6.97 2.71 12.9 6.71 17.68 11.74 4.77 5.04 8.39 10.97 10.71 17.94 2.32 6.96 3.61 14.45 3.61 22.7 0 8.26-1.16 16-3.61 22.97l.12-.26ZM1837.89 1328.68h113.93v-23.87h-89.16v-46.58h76.51v-23.74h-76.51v-42.45h89.16v-23.86h-113.93v160.5ZM2208.69 1250.62c-5.42-3.48-11.87-6.32-19.23-8.64-7.35-2.33-15.48-4.26-24.12-5.81-6.46-1.03-12.13-2.32-17.16-3.74-5.04-1.42-9.17-3.23-12.39-5.29-3.23-2.06-5.68-4.52-7.35-7.23-1.68-2.7-2.58-5.93-2.58-9.41 0-4.65 1.54-8.52 4.51-11.87 2.97-3.36 7.23-5.81 12.52-7.74 5.29-1.94 11.35-2.71 18.19-2.71 6.06 0 11.87.9 17.29 2.58 5.42 1.67 10.45 4.38 14.96 7.87 4.52 3.48 8.65 7.87 12.13 13.03l16.9-17.68c-4-6.06-8.9-11.22-14.84-15.48-5.93-4.26-12.77-7.35-20.38-9.55-7.61-2.19-16.13-3.22-25.42-3.22-8.77 0-16.77 1.16-24.25 3.35-7.49 2.19-14.07 5.29-19.61 9.42-5.55 4-9.94 8.9-13.03 14.58-3.1 5.68-4.65 11.87-4.65 18.58 0 6.71 1.16 12.9 3.61 18.19 2.45 5.29 6.07 9.93 10.84 13.93 4.78 4 10.71 7.23 17.81 9.81 6.96 2.58 15.09 4.64 24.12 6.19 4.39.65 8.78 1.42 12.9 2.45 4.13 1.04 8 2.2 11.87 3.62 3.75 1.42 6.97 2.96 9.81 4.64 2.84 1.81 5.03 3.87 6.71 6.32 1.55 2.45 2.45 5.29 2.45 8.52 0 4.9-1.81 9.16-5.29 12.64-3.48 3.49-8.13 6.19-13.93 8-5.81 1.81-12 2.71-18.58 2.71-10.84 0-20.39-2.19-28.64-6.58-8.26-4.39-16.65-11.87-25.04-22.32l-16.51 20c5.55 6.84 11.61 12.64 18.45 17.29 6.84 4.64 14.32 8.13 22.71 10.45 8.38 2.32 17.42 3.48 27.35 3.48 13.29 0 24.77-2.06 34.45-6.19 9.68-4.13 17.29-10.07 22.58-17.68 5.29-7.61 8-16.64 8-26.83 0-6.58-1.55-12.26-4.52-17.16-2.97-4.91-7.23-9.03-12.64-12.52ZM2369.06 1191.79h32.25v113.28h-32.25v23.61h89.41v-23.61h-32.38v-113.28h32.38v-23.61h-89.41v23.61ZM2766.31 1252.43c-.13-1.42-.38-3.23-.64-5.16h-79.35v24.25h53.41c.13 4.9-1.16 9.55-3.74 13.94-2.71 4.38-6.45 8.12-11.48 11.35-4.9 3.22-10.71 5.68-17.16 7.48-6.45 1.81-13.29 2.58-20.51 2.58-8.52 0-16.65-1.42-24.26-4.13-7.61-2.7-14.45-6.7-20.39-11.87-5.93-5.16-10.57-11.22-13.93-18.45-3.35-7.22-5.03-15.22-5.03-24.12 0-8.26 1.55-15.87 4.77-22.84 3.23-6.97 7.74-13.03 13.55-18.19 5.81-5.16 12.52-9.29 20.26-12.13 7.74-2.84 16.12-4.38 25.16-4.38 6.06 0 12.12.77 18.06 2.58 5.93 1.8 11.48 4 16.9 6.96 5.42 2.97 10.58 6.58 15.48 10.84l16-17.16c-4.13-5.03-9.55-9.68-16.38-13.8-6.84-4.13-14.45-7.36-23.1-9.81-8.64-2.45-17.55-3.61-27.09-3.61-12.52 0-24.26 2.06-35.1 6.19-10.83 4.13-20.38 9.94-28.51 17.29-8.13 7.35-14.58 16.13-18.97 26.06-4.51 9.94-6.71 20.64-6.71 32.13 0 12.38 2.33 23.61 6.84 33.8 4.65 10.19 10.97 18.84 18.97 26.19 8 7.36 17.42 12.77 28.13 16.77 10.7 4 21.93 5.81 34.06 5.81 12.12 0 22.57-1.68 32.38-4.9 9.81-3.23 18.45-8 25.68-14.07 7.22-6.06 12.9-13.54 17.03-22.32 4.12-8.77 6.19-18.7 6.19-29.93v-3.35c0-1.16-.26-2.45-.39-3.87l-.13-.13ZM3037.25 1220.95v18.06c0 5.93.26 11.87.52 17.54.26 5.68.52 11.23.9 16.52.39 5.29.78 10.32 1.29 15.09.26 2.58.65 4.78.91 7.1l-107.35-127.08h-23.09v160.5h24.77v-66.71c0-2.45 0-5.16-.26-8.12-.26-2.97-.39-6.33-.51-9.81-.26-3.61-.52-7.61-1.04-12-.51-4.39-.9-9.42-1.41-14.84-.26-3.87-.65-8.12-1.04-12.64l107.35 124.25h23.61v-160.5h-24.77v52.76l.12-.12ZM3580.68 1250.62c-5.42-3.48-11.87-6.32-19.22-8.64-7.36-2.33-15.48-4.26-24.13-5.81-6.45-1.03-12.13-2.32-17.16-3.74-5.03-1.42-9.16-3.23-12.38-5.29-3.23-2.06-5.68-4.52-7.36-7.23-1.68-2.7-2.58-5.93-2.58-9.41 0-4.65 1.55-8.52 4.65-11.87 3.09-3.23 7.22-5.81 12.51-7.74 5.29-1.94 11.35-2.71 18.19-2.71 6.07 0 11.87.9 17.29 2.58 5.42 1.67 10.45 4.38 14.97 7.87 4.51 3.48 8.64 7.87 12.12 13.03l16.91-17.68c-4-6.06-8.91-11.22-14.84-15.48-5.94-4.26-12.77-7.35-20.38-9.55-7.62-2.19-16.13-3.22-25.42-3.22-8.77 0-16.77 1.16-24.26 3.35-7.48 2.19-14.06 5.29-19.61 9.42-5.55 4-9.93 8.9-13.03 14.58-3.1 5.68-4.64 11.87-4.64 18.58 0 6.71 1.16 12.9 3.61 18.19 2.45 5.29 6.06 9.93 10.84 13.93 4.77 4 10.7 7.23 17.8 9.81 6.97 2.58 15.1 4.64 24.13 6.19 4.38.65 8.77 1.42 12.9 2.45 4.13 1.04 8 2.2 11.87 3.62 3.74 1.42 6.97 2.96 9.8 4.64 2.84 1.81 5.04 3.87 6.71 6.32 1.68 2.45 2.46 5.29 2.46 8.52 0 4.9-1.81 9.16-5.29 12.64-3.49 3.49-8.13 6.19-13.94 8-5.8 1.81-12 2.71-18.58 2.71-10.84 0-20.38-2.19-28.64-6.58-8.26-4.39-16.64-11.87-25.03-22.32l-16.51 20c5.54 6.84 11.61 12.64 18.44 17.29 6.84 4.64 14.33 8.13 22.71 10.45 8.39 2.32 17.42 3.48 27.35 3.48 13.29 0 24.78-2.06 34.45-6.19 9.68-4.13 17.29-10.07 22.58-17.68 5.29-7.61 8-16.64 8-26.83 0-6.58-1.55-12.26-4.51-17.16-2.97-4.91-7.23-9.03-12.65-12.52h-.13ZM3802.47 1239.01l-51.74-70.83h-31.74l70.71 94.05v66.45h24.77v-67.48l65.93-93.02h-29.29l-48.64 70.83ZM4115.34 1250.62c-5.42-3.48-11.87-6.32-19.22-8.64-7.36-2.33-15.49-4.26-24.13-5.81-6.45-1.03-12.13-2.32-17.16-3.74-5.03-1.42-9.16-3.23-12.39-5.29-3.22-2.06-5.67-4.52-7.35-7.23-1.68-2.7-2.58-5.93-2.58-9.41 0-4.65 1.55-8.52 4.64-11.87 3.1-3.23 7.23-5.81 12.52-7.74 5.29-1.94 11.35-2.71 18.19-2.71 6.06 0 11.87.9 17.29 2.58 5.42 1.67 10.45 4.38 14.97 7.87 4.51 3.48 8.64 7.87 12.12 13.03l16.9-17.68c-4-6.06-8.9-11.22-14.83-15.48-5.94-4.26-12.78-7.35-20.39-9.55-7.61-2.19-16.12-3.22-25.41-3.22-8.78 0-16.78 1.16-24.26 3.35-7.48 2.19-14.06 5.29-19.61 9.42-5.55 4-9.94 8.9-13.03 14.58-3.1 5.68-4.65 11.87-4.65 18.58 0 6.71 1.16 12.9 3.62 18.19 2.45 5.29 6.06 9.93 10.83 13.93 4.78 4 10.71 7.23 17.81 9.81 6.97 2.58 15.09 4.64 24.12 6.19 4.39.65 8.78 1.42 12.91 2.45 4.13 1.04 8 2.2 11.87 3.62 3.74 1.42 6.96 2.96 9.8 4.64 2.84 1.81 5.03 3.87 6.71 6.32 1.68 2.45 2.45 5.29 2.45 8.52 0 4.9-1.8 9.16-5.29 12.64-3.48 3.49-8.13 6.19-13.93 8-5.81 1.81-12 2.71-18.58 2.71-10.84 0-20.39-2.19-28.64-6.58-8.26-4.39-16.65-11.87-25.03-22.32l-16.52 20c5.55 6.84 11.62 12.64 18.45 17.29 6.84 4.64 14.33 8.13 22.71 10.45 8.39 2.32 17.42 3.48 27.35 3.48 13.29 0 24.77-2.06 34.45-6.19 9.68-4.13 17.29-10.07 22.58-17.68 5.29-7.61 8-16.64 8-26.83 0-6.58-1.55-12.26-4.52-17.16-2.96-4.91-7.22-9.03-12.64-12.52h-.13ZM4262.42 1192.04h51.35v136.64h24.65v-136.64h52.77v-23.86h-128.77v23.86ZM4532.21 1328.68h113.92v-23.87h-89.15v-46.58h76.51v-23.74h-76.51v-42.45h89.15v-23.86h-113.92v160.5ZM4881.33 1253.72l-58.83-85.54h-24.26v160.5h24.77v-66.71c0-13.93-.38-26.32-1.03-37.28-.38-5.55-.9-11.23-1.42-16.78l52.9 74.58h15.1l53.67-74.58c-.65 5.81-1.16 11.62-1.55 17.42-.64 11.1-1.03 23.23-1.03 36.51v66.71h24.77v-160.5h-23.35l-59.61 85.54-.13.13Z"/><path fill="url(#a)" d="M1123.24 298.455 626.261 11.515a86.39 86.39 0 0 0-86.185 0L43.092 298.455C16.385 313.808 0 342.322 0 373.157v573.88c0 30.836 16.385 59.223 43.092 74.703l2.967 1.68 338.677-216.37-92.636 358.42 55.478 31.99 135.729-525.235-305.518 195.207 48.898-208.883 566.526-361.901L532.851 1304.29l7.483 4.26a86.408 86.408 0 0 0 86.186 0l496.98-286.94c26.71-15.35 43.1-43.866 43.1-74.702v-573.88c0-30.836-16.39-59.22-43.1-74.702l-.26.129Z"/><defs><linearGradient id="a" x1="641.025" x2="641.025" y1="0" y2="1320.07" gradientUnits="userSpaceOnUse"><stop stop-color="#9772FF"/><stop offset=".609" stop-color="#144CC7"/></linearGradient></defs></svg>