<svg xmlns="http://www.w3.org/2000/svg" width="79" height="24" fill="none"><g clip-path="url(#a)"><path fill="#20104D" fill-rule="evenodd" d="m11.276.7 8.948 5v.003c.48.268.776.763.776 1.3v9.998c0 .535-.296 1.032-.776 1.3L11.276 23.3a1.598 1.598 0 0 1-1.552 0l-.134-.075L14.277 5.67 4.08 11.975l-.88 3.639 5.5-3.402-2.444 9.15-.998-.558.001-.002h.001l1.667-6.241-.003.001v-.001L.829 18.33l-.052-.03A1.491 1.491 0 0 1 0 16.998V7.001c0-.535.296-1.032.776-1.3l8.948-5a1.598 1.598 0 0 1 1.552 0Z" clip-rule="evenodd"/></g><path fill="#20104D" d="M33.686 18.68a4.87 4.87 0 0 1-1.44-.216 5.583 5.583 0 0 1-1.242-.558 4.73 4.73 0 0 1-.936-.774c-.24-.288-.396-.558-.468-.81l.612-.18v2.304h-1.854V5.18h1.854v6.03l-.432-.09c.072-.264.222-.528.45-.792s.522-.504.882-.72c.36-.228.762-.408 1.206-.54a4.464 4.464 0 0 1 1.386-.216c.936 0 1.77.21 2.502.63a4.65 4.65 0 0 1 1.764 1.746c.432.732.648 1.572.648 2.52s-.216 1.794-.648 2.538a4.65 4.65 0 0 1-1.746 1.764c-.744.42-1.59.63-2.538.63Zm-.234-1.71c.66 0 1.242-.138 1.746-.414.504-.288.9-.672 1.188-1.152.3-.492.45-1.044.45-1.656 0-.612-.144-1.158-.432-1.638a3.014 3.014 0 0 0-1.206-1.152c-.504-.276-1.086-.414-1.746-.414-.66 0-1.248.138-1.764.414-.504.276-.906.66-1.206 1.152a3.121 3.121 0 0 0-.432 1.638c0 .612.144 1.164.432 1.656.3.48.702.864 1.206 1.152.516.276 1.104.414 1.764.414Zm7.044 1.53V5.18h1.854V18.5h-1.854Zm8.273.18c-.924 0-1.746-.21-2.466-.63a4.732 4.732 0 0 1-1.71-1.764c-.408-.744-.612-1.59-.612-2.538 0-.948.21-1.788.63-2.52a4.65 4.65 0 0 1 1.764-1.746c.744-.42 1.59-.63 2.538-.63.576 0 1.104.078 1.584.234.492.144.918.348 1.278.612s.648.558.864.882c.216.312.336.642.36.99l-.45-.072V9.05h1.854v9.45h-1.854v-2.394l.396-.018c-.048.3-.192.606-.432.918-.228.3-.54.576-.936.828a5.379 5.379 0 0 1-1.296.612c-.48.156-.984.234-1.512.234Zm.468-1.71c.66 0 1.242-.138 1.746-.414a3.054 3.054 0 0 0 1.206-1.134c.288-.492.432-1.05.432-1.674 0-.6-.144-1.14-.432-1.62a3.054 3.054 0 0 0-1.206-1.134c-.504-.288-1.086-.432-1.746-.432-.66 0-1.242.144-1.746.432-.504.276-.9.654-1.188 1.134a3.087 3.087 0 0 0-.432 1.62c0 .624.144 1.182.432 1.674.288.48.684.858 1.188 1.134.504.276 1.086.414 1.746.414Zm11.834 1.71c-.972 0-1.83-.21-2.574-.63a4.689 4.689 0 0 1-1.746-1.746c-.42-.744-.63-1.59-.63-2.538 0-.948.21-1.788.63-2.52A4.65 4.65 0 0 1 58.515 9.5c.756-.432 1.614-.648 2.574-.648.564 0 1.092.078 1.584.234.504.156.948.366 1.332.63.396.252.702.534.918.846.216.3.324.6.324.9l-.54.036V5.18h1.854V18.5h-1.854v-2.394l.36.054c0 .288-.114.576-.342.864-.216.288-.51.558-.882.81a5.044 5.044 0 0 1-1.278.612c-.48.156-.978.234-1.494.234Zm.324-1.638c.66 0 1.242-.144 1.746-.432a3.14 3.14 0 0 0 1.206-1.17c.288-.492.432-1.05.432-1.674 0-.624-.144-1.182-.432-1.674a3.014 3.014 0 0 0-1.206-1.152c-.504-.288-1.086-.432-1.746-.432-.66 0-1.248.144-1.764.432-.504.276-.9.66-1.188 1.152a3.251 3.251 0 0 0-.432 1.674c0 .624.144 1.182.432 1.674.288.492.684.882 1.188 1.17.516.288 1.104.432 1.764.432Zm12.269 1.638c-1.08 0-2.04-.204-2.88-.612-.84-.42-1.5-.99-1.98-1.71-.468-.72-.702-1.548-.702-2.484 0-.768.138-1.458.414-2.07a4.847 4.847 0 0 1 1.134-1.584 5.202 5.202 0 0 1 1.728-1.026c.66-.24 1.368-.36 2.124-.36.684 0 1.32.114 1.908.342.6.228 1.122.546 1.566.954.444.408.786.894 1.026 1.458.252.552.372 1.164.36 1.836l-.018.864h-8.73l-.414-1.476h7.542l-.27.234v-.432a1.869 1.869 0 0 0-.504-1.062 3.032 3.032 0 0 0-1.08-.738 3.567 3.567 0 0 0-1.386-.27c-.72 0-1.35.114-1.89.342a2.684 2.684 0 0 0-1.242 1.062c-.288.468-.432 1.068-.432 1.8 0 .66.168 1.23.504 1.71.336.48.804.852 1.404 1.116.6.264 1.29.396 2.07.396.672 0 1.254-.096 1.746-.288a5.84 5.84 0 0 0 1.404-.792l.882 1.35c-.312.264-.702.51-1.17.738-.468.216-.972.39-1.512.522-.528.12-1.062.18-1.602.18Z"/><defs><clipPath id="a"><path fill="#fff" d="M0 .5h21v23H0z"/></clipPath></defs></svg>