<svg width="4973" height="1331" viewBox="0 0 4973 1331" fill="none" xmlns="http://www.w3.org/2000/svg">
<path d="M2164.43 699.191C2164.43 641.648 2151.27 590.298 2125.08 545.528C2098.89 500.758 2063.28 465.536 2018.38 439.99C1973.48 414.444 1922.65 401.671 1865.75 401.671C1836.59 401.671 1808.47 405.929 1781.5 414.315C1754.54 422.701 1730.15 433.668 1708.22 447.086C1686.29 460.633 1668.48 475.341 1654.68 491.34C1654.29 491.856 1654.03 492.243 1653.64 492.759V178.596H1541.01V984.84H1653.64V913.105C1667.06 926.91 1683.06 939.683 1701.77 951.424C1724.35 965.616 1749.76 977.099 1777.76 985.872C1805.89 994.646 1834.79 999.032 1864.72 999.032C1922.26 999.032 1973.74 986.13 2018.9 960.198C2064.06 934.265 2099.67 898.784 2125.6 853.498C2151.53 808.341 2164.43 756.862 2164.43 699.32V699.191ZM2029.35 799.31C2011.42 828.855 1987.29 852.208 1956.58 869.367C1926.01 886.527 1890.52 895.042 1850.53 895.042C1810.53 895.042 1774.92 886.527 1743.83 869.367C1712.86 852.208 1688.35 828.855 1670.55 799.31C1652.61 769.764 1643.71 736.348 1643.71 699.191C1643.71 662.033 1652.61 628.617 1670.55 599.071C1688.35 569.526 1712.86 546.431 1743.83 529.659C1774.79 512.886 1810.4 504.5 1850.53 504.5C1890.65 504.5 1926.13 512.886 1957.23 529.659C1988.19 546.431 2012.45 569.526 2029.99 599.071C2047.54 628.617 2056.32 662.033 2056.32 699.191C2056.32 736.348 2047.41 769.764 2029.48 799.31H2029.35Z" fill="white"/>
<path d="M2489.3 178.596H2376.67V988.066H2489.3V178.596Z" fill="white"/>
<path d="M3206.92 498.822C3194.53 482.308 3178.92 467.084 3159.82 453.021C3137.89 437.022 3112.21 424.378 3082.67 415.218C3053.12 406.057 3020.87 401.542 2985.9 401.542C2928.23 401.542 2876.88 414.315 2831.73 439.86C2786.44 465.406 2750.96 500.629 2725.03 545.399C2699.09 590.297 2686.19 641.518 2686.19 699.061C2686.19 756.604 2698.71 808.083 2723.87 853.24C2749.03 898.396 2783.47 934.006 2827.21 959.939C2870.95 985.872 2920.88 998.774 2977.13 998.774C3009.26 998.774 3039.84 994 3068.99 984.582C3098.15 975.163 3124.6 962.648 3148.34 947.424C3172.08 932.071 3191.05 915.169 3205.24 896.59C3205.88 895.816 3206.27 895.042 3206.92 894.268V987.936H3319.55V413.67H3206.92V498.822ZM3184.98 800.342C3167.44 829.887 3143.18 852.982 3112.22 869.754C3081.25 886.527 3045.64 894.913 3005.52 894.913C2965.39 894.913 2930.04 886.527 2899.46 869.754C2868.88 852.982 2844.76 829.887 2827.21 800.342C2809.66 770.796 2801.02 737.122 2801.02 699.19C2801.02 661.258 2809.79 629.907 2827.21 600.748C2844.76 571.59 2868.76 548.366 2899.46 531.335C2930.04 514.176 2965.39 505.661 3005.52 505.661C3045.64 505.661 3081.12 514.305 3112.22 531.335C3143.18 548.495 3167.44 571.59 3184.98 600.748C3202.53 629.907 3211.17 662.678 3211.17 699.19C3211.17 735.703 3202.4 770.796 3184.98 800.342Z" fill="white"/>
<path d="M4043.74 489.017C4032.25 476.502 4018.32 464.632 4001.68 453.666C3977.94 438.054 3950.97 425.41 3920.78 415.863C3890.46 406.445 3858.21 401.671 3824.02 401.671C3765.7 401.671 3713.7 414.573 3668.16 440.506C3622.62 466.439 3586.88 501.79 3560.95 546.56C3535.01 591.459 3522.11 642.68 3522.11 700.222C3522.11 757.765 3534.88 809.115 3560.43 853.885C3585.98 898.784 3621.33 934.135 3666.48 959.939C3711.64 985.872 3763.89 998.774 3822.86 998.774C3854.21 998.774 3884.53 994 3913.69 984.582C3942.84 975.163 3968.78 962.648 3991.36 947.424C4013.16 932.716 4030.58 916.846 4043.87 900.074V987.807H4156.5V178.338H4043.87V488.888L4043.74 489.017ZM4021.8 802.019C4004.26 831.951 3980 855.562 3949.04 873.109C3918.07 890.656 3882.46 899.3 3842.34 899.3C3802.21 899.3 3766.73 890.526 3735.64 873.109C3704.67 855.562 3680.42 831.951 3662.87 802.019C3645.33 772.086 3636.68 738.154 3636.68 700.352C3636.68 662.549 3645.45 628.488 3662.87 598.555C3680.42 568.622 3704.67 545.141 3735.64 527.981C3766.6 510.822 3802.21 502.306 3842.34 502.306C3882.46 502.306 3917.94 510.951 3949.04 527.981C3980 545.141 4004.26 568.622 4021.8 598.555C4039.35 628.488 4048 662.42 4048 700.352C4048 738.283 4039.22 772.215 4021.8 802.019Z" fill="white"/>
<path d="M4951.13 567.46C4936.17 533.528 4915.14 504.241 4888.17 479.34C4861.21 454.568 4829.6 435.215 4793.6 421.41C4757.47 407.605 4718.64 400.638 4677.1 400.638C4631.17 400.638 4588.07 407.992 4548.08 422.571C4507.95 437.15 4473.12 457.923 4443.57 484.888C4414.02 511.853 4390.93 543.979 4374.16 581.136C4357.39 618.294 4349 660.225 4349 706.931C4349 763.828 4363.45 814.146 4392.22 857.884C4420.99 901.621 4460.99 936.07 4511.95 961.229C4563.04 986.387 4621.36 998.902 4687.03 998.902C4719.8 998.902 4752.44 995.032 4784.96 987.419C4817.34 979.807 4847.92 969.228 4876.3 955.681C4904.69 942.133 4928.43 927.425 4947.39 911.427L4893.85 829.37C4866.88 849.755 4838.37 865.883 4808.57 877.495C4778.63 889.106 4743.28 895.041 4702.51 895.041C4655.16 895.041 4613.23 887.042 4576.72 870.915C4540.21 854.916 4511.82 832.209 4491.44 803.05C4476.86 782.149 4467.57 758.409 4463.31 731.96H4971.65L4972.68 679.449C4973.45 638.679 4966.23 601.264 4951.39 567.331L4951.13 567.46ZM4857.6 642.421H4466.41C4470.79 622.552 4477.76 604.747 4487.31 589.394C4505.11 560.622 4530.27 539.205 4562.79 525.4C4595.17 511.595 4633.36 504.628 4677.1 504.628C4707.03 504.628 4735.03 510.046 4761.35 521.013C4787.54 531.98 4809.47 546.946 4827.02 565.912C4844.56 584.878 4854.76 606.424 4857.6 630.422V642.421Z" fill="white"/>
<path d="M1670.94 1191.14C1663.97 1183.79 1655.33 1178.11 1645.39 1174.24C1635.33 1170.24 1623.97 1168.31 1611.33 1168.31H1541.14V1328.81H1611.33C1623.97 1328.81 1635.46 1326.87 1645.52 1322.87C1655.58 1318.87 1664.1 1313.32 1671.07 1306.1C1678.03 1298.87 1683.32 1290.49 1687.06 1280.68C1690.68 1270.88 1692.61 1260.17 1692.61 1248.56C1692.61 1236.94 1690.81 1226.49 1687.06 1216.82C1683.45 1207.14 1678.03 1198.63 1671.07 1191.27L1670.94 1191.14ZM1663.19 1271.39C1660.74 1278.23 1657.26 1284.17 1652.49 1289.2C1647.71 1294.23 1641.91 1297.97 1634.81 1300.81C1627.72 1303.52 1619.46 1304.94 1610.17 1304.94H1565.92V1192.17H1610.17C1619.46 1192.17 1627.72 1193.59 1634.68 1196.3C1641.65 1199.01 1647.58 1203.01 1652.36 1208.04C1657.13 1213.08 1660.75 1219.01 1663.07 1225.98C1665.39 1232.94 1666.68 1240.43 1666.68 1248.68C1666.68 1256.94 1665.52 1264.68 1663.07 1271.65L1663.19 1271.39Z" fill="white"/>
<path d="M1837.89 1328.68H1951.82V1304.81H1862.66V1258.23H1939.17V1234.49H1862.66V1192.04H1951.82V1168.18H1837.89V1328.68Z" fill="white"/>
<path d="M2208.69 1250.62C2203.27 1247.14 2196.82 1244.3 2189.46 1241.98C2182.11 1239.65 2173.98 1237.72 2165.34 1236.17C2158.88 1235.14 2153.21 1233.85 2148.18 1232.43C2143.14 1231.01 2139.01 1229.2 2135.79 1227.14C2132.56 1225.08 2130.11 1222.62 2128.44 1219.91C2126.76 1217.21 2125.86 1213.98 2125.86 1210.5C2125.86 1205.85 2127.4 1201.98 2130.37 1198.63C2133.34 1195.27 2137.6 1192.82 2142.89 1190.89C2148.18 1188.95 2154.24 1188.18 2161.08 1188.18C2167.14 1188.18 2172.95 1189.08 2178.37 1190.76C2183.79 1192.43 2188.82 1195.14 2193.33 1198.63C2197.85 1202.11 2201.98 1206.5 2205.46 1211.66L2222.36 1193.98C2218.36 1187.92 2213.46 1182.76 2207.52 1178.5C2201.59 1174.24 2194.75 1171.15 2187.14 1168.95C2179.53 1166.76 2171.01 1165.73 2161.72 1165.73C2152.95 1165.73 2144.95 1166.89 2137.47 1169.08C2129.98 1171.27 2123.4 1174.37 2117.86 1178.5C2112.31 1182.5 2107.92 1187.4 2104.83 1193.08C2101.73 1198.76 2100.18 1204.95 2100.18 1211.66C2100.18 1218.37 2101.34 1224.56 2103.79 1229.85C2106.24 1235.14 2109.86 1239.78 2114.63 1243.78C2119.41 1247.78 2125.34 1251.01 2132.44 1253.59C2139.4 1256.17 2147.53 1258.23 2156.56 1259.78C2160.95 1260.43 2165.34 1261.2 2169.46 1262.23C2173.59 1263.27 2177.46 1264.43 2181.33 1265.85C2185.08 1267.27 2188.3 1268.81 2191.14 1270.49C2193.98 1272.3 2196.17 1274.36 2197.85 1276.81C2199.4 1279.26 2200.3 1282.1 2200.3 1285.33C2200.3 1290.23 2198.49 1294.49 2195.01 1297.97C2191.53 1301.46 2186.88 1304.16 2181.08 1305.97C2175.27 1307.78 2169.08 1308.68 2162.5 1308.68C2151.66 1308.68 2142.11 1306.49 2133.86 1302.1C2125.6 1297.71 2117.21 1290.23 2108.82 1279.78L2092.31 1299.78C2097.86 1306.62 2103.92 1312.42 2110.76 1317.07C2117.6 1321.71 2125.08 1325.2 2133.47 1327.52C2141.85 1329.84 2150.89 1331 2160.82 1331C2174.11 1331 2185.59 1328.94 2195.27 1324.81C2204.95 1320.68 2212.56 1314.74 2217.85 1307.13C2223.14 1299.52 2225.85 1290.49 2225.85 1280.3C2225.85 1273.72 2224.3 1268.04 2221.33 1263.14C2218.36 1258.23 2214.1 1254.11 2208.69 1250.62Z" fill="white"/>
<path d="M2369.06 1191.79H2401.31V1305.07H2369.06V1328.68H2458.47V1305.07H2426.09V1191.79H2458.47V1168.18H2369.06V1191.79Z" fill="white"/>
<path d="M2766.31 1252.43C2766.18 1251.01 2765.93 1249.2 2765.67 1247.27H2686.32V1271.52H2739.73C2739.86 1276.42 2738.57 1281.07 2735.99 1285.46C2733.28 1289.84 2729.54 1293.58 2724.51 1296.81C2719.61 1300.03 2713.8 1302.49 2707.35 1304.29C2700.9 1306.1 2694.06 1306.87 2686.84 1306.87C2678.32 1306.87 2670.19 1305.45 2662.58 1302.74C2654.97 1300.04 2648.13 1296.04 2642.19 1290.87C2636.26 1285.71 2631.62 1279.65 2628.26 1272.42C2624.91 1265.2 2623.23 1257.2 2623.23 1248.3C2623.23 1240.04 2624.78 1232.43 2628 1225.46C2631.23 1218.49 2635.74 1212.43 2641.55 1207.27C2647.36 1202.11 2654.07 1197.98 2661.81 1195.14C2669.55 1192.3 2677.93 1190.76 2686.97 1190.76C2693.03 1190.76 2699.09 1191.53 2705.03 1193.34C2710.96 1195.14 2716.51 1197.34 2721.93 1200.3C2727.35 1203.27 2732.51 1206.88 2737.41 1211.14L2753.41 1193.98C2749.28 1188.95 2743.86 1184.3 2737.03 1180.18C2730.19 1176.05 2722.58 1172.82 2713.93 1170.37C2705.29 1167.92 2696.38 1166.76 2686.84 1166.76C2674.32 1166.76 2662.58 1168.82 2651.74 1172.95C2640.91 1177.08 2631.36 1182.89 2623.23 1190.24C2615.1 1197.59 2608.65 1206.37 2604.26 1216.3C2599.75 1226.24 2597.55 1236.94 2597.55 1248.43C2597.55 1260.81 2599.88 1272.04 2604.39 1282.23C2609.04 1292.42 2615.36 1301.07 2623.36 1308.42C2631.36 1315.78 2640.78 1321.19 2651.49 1325.19C2662.19 1329.19 2673.42 1331 2685.55 1331C2697.67 1331 2708.12 1329.32 2717.93 1326.1C2727.74 1322.87 2736.38 1318.1 2743.61 1312.03C2750.83 1305.97 2756.51 1298.49 2760.64 1289.71C2764.76 1280.94 2766.83 1271.01 2766.83 1259.78C2766.83 1258.75 2766.83 1257.59 2766.83 1256.43C2766.83 1255.27 2766.57 1253.98 2766.44 1252.56L2766.31 1252.43Z" fill="white"/>
<path d="M3037.25 1220.95C3037.25 1227.01 3037.25 1233.07 3037.25 1239.01C3037.25 1244.94 3037.51 1250.88 3037.77 1256.55C3038.03 1262.23 3038.29 1267.78 3038.67 1273.07C3039.06 1278.36 3039.45 1283.39 3039.96 1288.16C3040.22 1290.74 3040.61 1292.94 3040.87 1295.26L2933.52 1168.18H2910.43V1328.68H2935.2V1261.97C2935.2 1259.52 2935.2 1256.81 2934.94 1253.85C2934.68 1250.88 2934.55 1247.52 2934.43 1244.04C2934.17 1240.43 2933.91 1236.43 2933.39 1232.04C2932.88 1227.65 2932.49 1222.62 2931.98 1217.2C2931.72 1213.33 2931.33 1209.08 2930.94 1204.56L3038.29 1328.81H3061.9V1168.3H3037.13V1221.07L3037.25 1220.95Z" fill="white"/>
<path d="M3580.68 1250.62C3575.26 1247.14 3568.81 1244.3 3561.46 1241.98C3554.1 1239.65 3545.98 1237.72 3537.33 1236.17C3530.88 1235.14 3525.2 1233.85 3520.17 1232.43C3515.14 1231.01 3511.01 1229.2 3507.79 1227.14C3504.56 1225.08 3502.11 1222.62 3500.43 1219.91C3498.75 1217.21 3497.85 1213.98 3497.85 1210.5C3497.85 1205.85 3499.4 1201.98 3502.5 1198.63C3505.59 1195.4 3509.72 1192.82 3515.01 1190.89C3520.3 1188.95 3526.36 1188.18 3533.2 1188.18C3539.27 1188.18 3545.07 1189.08 3550.49 1190.76C3555.91 1192.43 3560.94 1195.14 3565.46 1198.63C3569.97 1202.11 3574.1 1206.5 3577.58 1211.66L3594.49 1193.98C3590.49 1187.92 3585.58 1182.76 3579.65 1178.5C3573.71 1174.24 3566.88 1171.15 3559.27 1168.95C3551.65 1166.76 3543.14 1165.73 3533.85 1165.73C3525.08 1165.73 3517.08 1166.89 3509.59 1169.08C3502.11 1171.27 3495.53 1174.37 3489.98 1178.5C3484.43 1182.5 3480.05 1187.4 3476.95 1193.08C3473.85 1198.76 3472.31 1204.95 3472.31 1211.66C3472.31 1218.37 3473.47 1224.56 3475.92 1229.85C3478.37 1235.14 3481.98 1239.78 3486.76 1243.78C3491.53 1247.78 3497.46 1251.01 3504.56 1253.59C3511.53 1256.17 3519.66 1258.23 3528.69 1259.78C3533.07 1260.43 3537.46 1261.2 3541.59 1262.23C3545.72 1263.27 3549.59 1264.43 3553.46 1265.85C3557.2 1267.27 3560.43 1268.81 3563.26 1270.49C3566.1 1272.3 3568.3 1274.36 3569.97 1276.81C3571.65 1279.26 3572.43 1282.1 3572.43 1285.33C3572.43 1290.23 3570.62 1294.49 3567.14 1297.97C3563.65 1301.46 3559.01 1304.16 3553.2 1305.97C3547.4 1307.78 3541.2 1308.68 3534.62 1308.68C3523.78 1308.68 3514.24 1306.49 3505.98 1302.1C3497.72 1297.71 3489.34 1290.23 3480.95 1279.78L3464.44 1299.78C3469.98 1306.62 3476.05 1312.42 3482.88 1317.07C3489.72 1321.71 3497.21 1325.2 3505.59 1327.52C3513.98 1329.84 3523.01 1331 3532.94 1331C3546.23 1331 3557.72 1328.94 3567.39 1324.81C3577.07 1320.68 3584.68 1314.74 3589.97 1307.13C3595.26 1299.52 3597.97 1290.49 3597.97 1280.3C3597.97 1273.72 3596.42 1268.04 3593.46 1263.14C3590.49 1258.23 3586.23 1254.11 3580.81 1250.62H3580.68Z" fill="white"/>
<path d="M3802.47 1239.01L3750.73 1168.18H3718.99L3789.7 1262.23V1328.68H3814.47V1261.2L3880.4 1168.18H3851.11L3802.47 1239.01Z" fill="white"/>
<path d="M4115.34 1250.62C4109.92 1247.14 4103.47 1244.3 4096.12 1241.98C4088.76 1239.65 4080.63 1237.72 4071.99 1236.17C4065.54 1235.14 4059.86 1233.85 4054.83 1232.43C4049.8 1231.01 4045.67 1229.2 4042.44 1227.14C4039.22 1225.08 4036.77 1222.62 4035.09 1219.91C4033.41 1217.21 4032.51 1213.98 4032.51 1210.5C4032.51 1205.85 4034.06 1201.98 4037.15 1198.63C4040.25 1195.4 4044.38 1192.82 4049.67 1190.89C4054.96 1188.95 4061.02 1188.18 4067.86 1188.18C4073.92 1188.18 4079.73 1189.08 4085.15 1190.76C4090.57 1192.43 4095.6 1195.14 4100.12 1198.63C4104.63 1202.11 4108.76 1206.5 4112.24 1211.66L4129.14 1193.98C4125.14 1187.92 4120.24 1182.76 4114.31 1178.5C4108.37 1174.24 4101.53 1171.15 4093.92 1168.95C4086.31 1166.76 4077.8 1165.73 4068.51 1165.73C4059.73 1165.73 4051.73 1166.89 4044.25 1169.08C4036.77 1171.27 4030.19 1174.37 4024.64 1178.5C4019.09 1182.5 4014.7 1187.4 4011.61 1193.08C4008.51 1198.76 4006.96 1204.95 4006.96 1211.66C4006.96 1218.37 4008.12 1224.56 4010.58 1229.85C4013.03 1235.14 4016.64 1239.78 4021.41 1243.78C4026.19 1247.78 4032.12 1251.01 4039.22 1253.59C4046.19 1256.17 4054.31 1258.23 4063.34 1259.78C4067.73 1260.43 4072.12 1261.2 4076.25 1262.23C4080.38 1263.27 4084.25 1264.43 4088.12 1265.85C4091.86 1267.27 4095.08 1268.81 4097.92 1270.49C4100.76 1272.3 4102.95 1274.36 4104.63 1276.81C4106.31 1279.26 4107.08 1282.1 4107.08 1285.33C4107.08 1290.23 4105.28 1294.49 4101.79 1297.97C4098.31 1301.46 4093.66 1304.16 4087.86 1305.97C4082.05 1307.78 4075.86 1308.68 4069.28 1308.68C4058.44 1308.68 4048.89 1306.49 4040.64 1302.1C4032.38 1297.71 4023.99 1290.23 4015.61 1279.78L3999.09 1299.78C4004.64 1306.62 4010.71 1312.42 4017.54 1317.07C4024.38 1321.71 4031.87 1325.2 4040.25 1327.52C4048.64 1329.84 4057.67 1331 4067.6 1331C4080.89 1331 4092.37 1328.94 4102.05 1324.81C4111.73 1320.68 4119.34 1314.74 4124.63 1307.13C4129.92 1299.52 4132.63 1290.49 4132.63 1280.3C4132.63 1273.72 4131.08 1268.04 4128.11 1263.14C4125.15 1258.23 4120.89 1254.11 4115.47 1250.62H4115.34Z" fill="white"/>
<path d="M4262.42 1192.04H4313.77V1328.68H4338.42V1192.04H4391.19V1168.18H4262.42V1192.04Z" fill="white"/>
<path d="M4532.21 1328.68H4646.13V1304.81H4556.98V1258.23H4633.49V1234.49H4556.98V1192.04H4646.13V1168.18H4532.21V1328.68Z" fill="white"/>
<path d="M4881.33 1253.72L4822.5 1168.18H4798.24V1328.68H4823.01V1261.97C4823.01 1248.04 4822.63 1235.65 4821.98 1224.69C4821.6 1219.14 4821.08 1213.46 4820.56 1207.91L4873.46 1282.49H4888.56L4942.23 1207.91C4941.58 1213.72 4941.07 1219.53 4940.68 1225.33C4940.04 1236.43 4939.65 1248.56 4939.65 1261.84V1328.55H4964.42V1168.05H4941.07L4881.46 1253.59L4881.33 1253.72Z" fill="white"/>
<path d="M1123.24 298.455L626.261 11.515C599.554 -3.83834 566.783 -3.83834 540.076 11.515L43.0921 298.455C16.3851 313.808 0 342.322 0 373.157V947.037C0 977.873 16.3851 1006.26 43.0921 1021.74L46.0593 1023.42L384.736 807.05L292.1 1165.47L347.578 1197.46L483.307 672.225L177.789 867.432L226.687 658.549L793.213 296.648L532.851 1304.29L540.334 1308.55C567.041 1323.9 599.813 1323.9 626.52 1308.55L1123.5 1021.61C1150.21 1006.26 1166.6 977.744 1166.6 946.908V373.028C1166.6 342.192 1150.21 313.808 1123.5 298.326L1123.24 298.455Z" fill="white"/>
</svg>
