<svg width="79" height="24" viewBox="0 0 79 24" fill="none" xmlns="http://www.w3.org/2000/svg">
<g clip-path="url(#clip0_108_366020)">
<path fill-rule="evenodd" clip-rule="evenodd" d="M11.2756 0.700811L20.2244 5.70081V5.70284C20.7044 5.97059 21 6.46552 21 7.00304V17.001C21 17.5365 20.7044 18.0335 20.2244 18.3012L11.2756 23.2992C10.7956 23.5669 10.2044 23.5669 9.7244 23.2992L9.59024 23.2241L14.2774 5.67039L4.07926 11.9746L3.19884 15.6136L8.69934 12.212L6.25514 21.3621L5.25734 20.8043L5.25808 20.8015L5.25945 20.8022L6.92595 14.5609L6.92342 14.5624L6.92384 14.5609L0.82801 18.3296L0.775604 18.2992C0.295568 18.0314 0 17.5365 0 16.999V7.00101C0 6.46552 0.295568 5.96856 0.775604 5.70081L9.7244 0.700811C10.2044 0.433063 10.7956 0.433063 11.2756 0.700811Z" fill="#20104D"/>
</g>
<path d="M33.686 18.68C33.194 18.68 32.714 18.608 32.246 18.464C31.79 18.32 31.376 18.134 31.004 17.906C30.632 17.666 30.32 17.408 30.068 17.132C29.828 16.844 29.672 16.574 29.6 16.322L30.212 16.142V18.446H28.358V5.18H30.212V11.21L29.78 11.12C29.852 10.856 30.002 10.592 30.23 10.328C30.458 10.064 30.752 9.824 31.112 9.608C31.472 9.38 31.874 9.2 32.318 9.068C32.762 8.924 33.224 8.852 33.704 8.852C34.64 8.852 35.474 9.062 36.206 9.482C36.95 9.902 37.538 10.484 37.97 11.228C38.402 11.96 38.618 12.8 38.618 13.748C38.618 14.696 38.402 15.542 37.97 16.286C37.55 17.03 36.968 17.618 36.224 18.05C35.48 18.47 34.634 18.68 33.686 18.68ZM33.452 16.97C34.112 16.97 34.694 16.832 35.198 16.556C35.702 16.268 36.098 15.884 36.386 15.404C36.686 14.912 36.836 14.36 36.836 13.748C36.836 13.136 36.692 12.59 36.404 12.11C36.116 11.618 35.714 11.234 35.198 10.958C34.694 10.682 34.112 10.544 33.452 10.544C32.792 10.544 32.204 10.682 31.688 10.958C31.184 11.234 30.782 11.618 30.482 12.11C30.194 12.59 30.05 13.136 30.05 13.748C30.05 14.36 30.194 14.912 30.482 15.404C30.782 15.884 31.184 16.268 31.688 16.556C32.204 16.832 32.792 16.97 33.452 16.97ZM40.4962 18.5V5.18H42.3502V18.5H40.4962ZM48.7687 18.68C47.8447 18.68 47.0227 18.47 46.3027 18.05C45.5827 17.618 45.0127 17.03 44.5927 16.286C44.1847 15.542 43.9807 14.696 43.9807 13.748C43.9807 12.8 44.1907 11.96 44.6107 11.228C45.0427 10.484 45.6307 9.902 46.3747 9.482C47.1187 9.062 47.9647 8.852 48.9127 8.852C49.4887 8.852 50.0167 8.93 50.4967 9.086C50.9887 9.23 51.4147 9.434 51.7747 9.698C52.1347 9.962 52.4227 10.256 52.6387 10.58C52.8547 10.892 52.9747 11.222 52.9987 11.57L52.5487 11.498V9.05H54.4027V18.5H52.5487V16.106L52.9447 16.088C52.8967 16.388 52.7527 16.694 52.5127 17.006C52.2847 17.306 51.9727 17.582 51.5767 17.834C51.1927 18.086 50.7607 18.29 50.2807 18.446C49.8007 18.602 49.2967 18.68 48.7687 18.68ZM49.2367 16.97C49.8967 16.97 50.4787 16.832 50.9827 16.556C51.4987 16.28 51.9007 15.902 52.1887 15.422C52.4767 14.93 52.6207 14.372 52.6207 13.748C52.6207 13.148 52.4767 12.608 52.1887 12.128C51.9007 11.648 51.4987 11.27 50.9827 10.994C50.4787 10.706 49.8967 10.562 49.2367 10.562C48.5767 10.562 47.9947 10.706 47.4907 10.994C46.9867 11.27 46.5907 11.648 46.3027 12.128C46.0147 12.608 45.8707 13.148 45.8707 13.748C45.8707 14.372 46.0147 14.93 46.3027 15.422C46.5907 15.902 46.9867 16.28 47.4907 16.556C47.9947 16.832 48.5767 16.97 49.2367 16.97ZM61.0706 18.68C60.0986 18.68 59.2406 18.47 58.4966 18.05C57.7526 17.618 57.1706 17.036 56.7506 16.304C56.3306 15.56 56.1206 14.714 56.1206 13.766C56.1206 12.818 56.3306 11.978 56.7506 11.246C57.1826 10.502 57.7706 9.92 58.5146 9.5C59.2706 9.068 60.1286 8.852 61.0886 8.852C61.6526 8.852 62.1806 8.93 62.6726 9.086C63.1766 9.242 63.6206 9.452 64.0046 9.716C64.4006 9.968 64.7066 10.25 64.9226 10.562C65.1386 10.862 65.2466 11.162 65.2466 11.462L64.7066 11.498V5.18H66.5606V18.5H64.7066V16.106L65.0666 16.16C65.0666 16.448 64.9526 16.736 64.7246 17.024C64.5086 17.312 64.2146 17.582 63.8426 17.834C63.4706 18.086 63.0446 18.29 62.5646 18.446C62.0846 18.602 61.5866 18.68 61.0706 18.68ZM61.3946 17.042C62.0546 17.042 62.6366 16.898 63.1406 16.61C63.6566 16.322 64.0586 15.932 64.3466 15.44C64.6346 14.948 64.7786 14.39 64.7786 13.766C64.7786 13.142 64.6346 12.584 64.3466 12.092C64.0586 11.6 63.6566 11.216 63.1406 10.94C62.6366 10.652 62.0546 10.508 61.3946 10.508C60.7346 10.508 60.1466 10.652 59.6306 10.94C59.1266 11.216 58.7306 11.6 58.4426 12.092C58.1546 12.584 58.0106 13.142 58.0106 13.766C58.0106 14.39 58.1546 14.948 58.4426 15.44C58.7306 15.932 59.1266 16.322 59.6306 16.61C60.1466 16.898 60.7346 17.042 61.3946 17.042ZM73.6639 18.68C72.5839 18.68 71.6239 18.476 70.7839 18.068C69.9439 17.648 69.2839 17.078 68.8039 16.358C68.3359 15.638 68.1019 14.81 68.1019 13.874C68.1019 13.106 68.2399 12.416 68.5159 11.804C68.7919 11.192 69.1699 10.664 69.6499 10.22C70.1419 9.776 70.7179 9.434 71.3779 9.194C72.0379 8.954 72.7459 8.834 73.5019 8.834C74.1859 8.834 74.8219 8.948 75.4099 9.176C76.0099 9.404 76.5319 9.722 76.9759 10.13C77.4199 10.538 77.7619 11.024 78.0019 11.588C78.2539 12.14 78.3739 12.752 78.3619 13.424L78.3439 14.288H69.6139L69.1999 12.812H76.7419L76.4719 13.046V12.614C76.4239 12.218 76.2559 11.864 75.9679 11.552C75.6799 11.24 75.3199 10.994 74.8879 10.814C74.4559 10.634 73.9939 10.544 73.5019 10.544C72.7819 10.544 72.1519 10.658 71.6119 10.886C71.0839 11.114 70.6699 11.468 70.3699 11.948C70.0819 12.416 69.9379 13.016 69.9379 13.748C69.9379 14.408 70.1059 14.978 70.4419 15.458C70.7779 15.938 71.2459 16.31 71.8459 16.574C72.4459 16.838 73.1359 16.97 73.9159 16.97C74.5879 16.97 75.1699 16.874 75.6619 16.682C76.1539 16.49 76.6219 16.226 77.0659 15.89L77.9479 17.24C77.6359 17.504 77.2459 17.75 76.7779 17.978C76.3099 18.194 75.8059 18.368 75.2659 18.5C74.7379 18.62 74.2039 18.68 73.6639 18.68Z" fill="#20104D"/>
<defs>
<clipPath id="clip0_108_366020">
<rect width="21" height="23" fill="white" transform="translate(0 0.5)"/>
</clipPath>
</defs>
</svg>
