<svg width="18" height="18" viewBox="0 0 18 18" fill="none" xmlns="http://www.w3.org/2000/svg">
<path d="M15.1875 12.1831C15.1875 12.5997 14.8497 12.9375 14.4331 12.9375H3.56695C3.15028 12.9375 2.8125 12.5997 2.8125 12.1831C2.8125 12.0628 2.84126 11.9442 2.8964 11.8373L3.82412 10.0381C3.92201 9.84825 3.97823 9.63968 3.989 9.4263L4.12763 6.68173C4.25745 4.09411 6.40039 2.0625 9 2.0625C11.5996 2.0625 13.7426 4.09411 13.8724 6.68173L14.011 9.4263C14.0218 9.63968 14.0779 9.84825 14.1759 10.0381L15.1036 11.8373C15.1587 11.9442 15.1875 12.0628 15.1875 12.1831Z" stroke="#7D7D7D" stroke-width="1.2" stroke-linecap="round" stroke-linejoin="round"/>
<path d="M12 12.9375C12 14.5943 10.6568 15.9375 9 15.9375C7.34314 15.9375 6 14.5943 6 12.9375" stroke="#7D7D7D" stroke-width="1.2" stroke-linecap="round" stroke-linejoin="round"/>
</svg>
