<svg width="18" height="18" viewBox="0 0 18 18" fill="none" xmlns="http://www.w3.org/2000/svg">
<path d="M15.1875 5.8125V13.6875C15.1875 14.5159 14.5159 15.1875 13.6875 15.1875H12.9375H5.0625H4.3125C3.48407 15.1875 2.8125 14.5159 2.8125 13.6875V5.8125C2.8125 4.98407 3.48407 4.3125 4.3125 4.3125H5.8125C6.22671 4.3125 6.5625 3.97671 6.5625 3.5625C6.5625 2.73407 7.23407 2.0625 8.0625 2.0625H9.9375C10.7659 2.0625 11.4375 2.73407 11.4375 3.5625C11.4375 3.97671 11.7733 4.3125 12.1875 4.3125H13.6875C14.5159 4.3125 15.1875 4.98407 15.1875 5.8125Z" stroke="#7D7D7D" stroke-width="1.2" stroke-linecap="round" stroke-linejoin="round"/>
<path d="M12.9375 15.1875V15.9375" stroke="#7D7D7D" stroke-width="1.2" stroke-linecap="round" stroke-linejoin="round"/>
<path d="M5.0625 15.1875V15.9375" stroke="#7D7D7D" stroke-width="1.2" stroke-linecap="round" stroke-linejoin="round"/>
<path d="M6.5625 4.3125H11.4375" stroke="#7D7D7D" stroke-width="1.2" stroke-linecap="round" stroke-linejoin="round"/>
<path d="M6.5625 7.3125V12.1875" stroke="#7D7D7D" stroke-width="1.2" stroke-linecap="round" stroke-linejoin="round"/>
<path d="M11.4375 7.3125V12.1875" stroke="#7D7D7D" stroke-width="1.2" stroke-linecap="round" stroke-linejoin="round"/>
</svg>
