<svg width="18" height="18" viewBox="0 0 18 18" fill="none" xmlns="http://www.w3.org/2000/svg">
<path d="M9.84375 9C9.84375 9.16688 9.79427 9.33001 9.70155 9.46876C9.60884 9.60752 9.47706 9.71566 9.32289 9.77952C9.16871 9.84338 8.99906 9.86009 8.83539 9.82754C8.67172 9.79498 8.52138 9.71462 8.40338 9.59662C8.28538 9.47862 8.20502 9.32828 8.17246 9.16461C8.13991 9.00094 8.15662 8.83129 8.22048 8.67711C8.28434 8.52294 8.39248 8.39116 8.53124 8.29845C8.66999 8.20573 8.83312 8.15625 9 8.15625C9.22378 8.15625 9.43839 8.24514 9.59662 8.40338C9.75486 8.56161 9.84375 8.77622 9.84375 9ZM13.7812 8.15625C13.6144 8.15625 13.4512 8.20573 13.3125 8.29845C13.1737 8.39116 13.0656 8.52294 13.0017 8.67711C12.9379 8.83129 12.9212 9.00094 12.9537 9.16461C12.9863 9.32828 13.0666 9.47862 13.1846 9.59662C13.3026 9.71462 13.453 9.79498 13.6166 9.82754C13.7803 9.86009 13.95 9.84338 14.1041 9.77952C14.2583 9.71566 14.3901 9.60752 14.4828 9.46876C14.5755 9.33001 14.625 9.16688 14.625 9C14.625 8.77622 14.5361 8.56161 14.3779 8.40338C14.2196 8.24514 14.005 8.15625 13.7812 8.15625ZM4.21875 8.15625C4.05187 8.15625 3.88874 8.20573 3.74999 8.29845C3.61123 8.39116 3.50309 8.52294 3.43923 8.67711C3.37537 8.83129 3.35866 9.00094 3.39121 9.16461C3.42377 9.32828 3.50413 9.47862 3.62213 9.59662C3.74013 9.71462 3.89047 9.79498 4.05414 9.82754C4.21781 9.86009 4.38746 9.84338 4.54164 9.77952C4.69581 9.71566 4.82759 9.60752 4.9203 9.46876C5.01302 9.33001 5.0625 9.16688 5.0625 9C5.0625 8.77622 4.97361 8.56161 4.81537 8.40338C4.65714 8.24514 4.44253 8.15625 4.21875 8.15625Z" fill="#7D7D7D" stroke="#7D7D7D"/>
</svg>
