<?xml version="1.0" encoding="UTF-8"?>
<svg version="1.1" xmlns="http://www.w3.org/2000/svg" width="258" height="281">
<path d="M0 0 C-0.66145194 5.4088508 -1.81698898 10.53384028 -3.22705078 15.79321289 C-3.45410831 16.65286148 -3.68116585 17.51251007 -3.91510391 18.39820862 C-4.67135307 21.2573853 -5.43330546 24.11500921 -6.1953125 26.97265625 C-6.73621831 29.01264408 -7.27678872 31.05272087 -7.81704712 33.09288025 C-9.27689839 38.60134897 -10.7418288 44.10845521 -12.20780945 49.61529541 C-13.43822429 54.23973433 -14.66571629 58.86494691 -15.89318848 63.49016762 C-21.94381453 86.28882109 -28.01682849 109.08152098 -34.1015625 131.87109375 C-34.30929668 132.64917955 -34.51703087 133.42726536 -34.73106003 134.22892952 C-40.14133401 154.48934853 -45.57421542 174.74373756 -51 195 C-58.59 223.38 -66.18 251.76 -74 281 C-134.72 281 -195.44 281 -258 281 C-257.3152427 275.52194158 -256.51485279 270.58318199 -255.07324219 265.32617188 C-254.78209565 264.23907488 -254.78209565 264.23907488 -254.48506737 263.13001633 C-253.84403048 260.74154267 -253.19544744 258.35518736 -252.546875 255.96875 C-252.08984137 254.27094226 -251.63329881 252.57300226 -251.17721558 250.87493896 C-249.70871432 245.41465951 -248.22981451 239.9572223 -246.75 234.5 C-246.2447849 232.63523158 -245.73963767 230.77044478 -245.23455811 228.90563965 C-244.98402491 227.98066303 -244.73349171 227.05568642 -244.47536659 226.10268021 C-243.46596576 222.37539601 -242.45687467 218.64802804 -241.44800186 214.92060089 C-240.94587125 213.06603634 -240.44341667 211.21155947 -239.9406395 209.3571701 C-236.85168999 197.96167591 -233.83279361 186.55364942 -230.9296875 175.109375 C-230.08514602 171.82449132 -229.23842062 168.54018018 -228.39074707 165.25610352 C-227.88458037 163.26903811 -227.38885832 161.27927973 -226.9041748 159.28686523 C-226.24629363 156.58477476 -225.55328936 153.89410088 -224.8515625 151.203125 C-224.59172073 150.06517487 -224.59172073 150.06517487 -224.32662964 148.90423584 C-222.66995313 142.79297943 -219.23673071 140.29226131 -214 137 C-213.04770508 136.35861084 -212.09541016 135.71722168 -211.11425781 135.05639648 C-209.79699707 134.22217163 -209.79699707 134.22217163 -208.453125 133.37109375 C-207.45345703 132.73518311 -206.45378906 132.09927246 -205.42382812 131.4440918 C-204.37646484 130.7819165 -203.32910156 130.11974121 -202.25 129.4375 C-200.01525403 128.01620812 -197.78088373 126.5943254 -195.546875 125.171875 C-193.88881836 124.11709961 -193.88881836 124.11709961 -192.19726562 123.04101562 C-187.61463788 120.11563628 -183.05477139 117.15600571 -178.5 114.1875 C-177.68974365 113.65970947 -176.8794873 113.13191895 -176.04467773 112.58813477 C-174.45989355 111.5557675 -172.87517498 110.5232995 -171.29052734 109.49072266 C-165.54938174 105.75426613 -159.79404158 102.03968149 -154.04150391 98.32080078 C-152.04102883 97.0265446 -150.04180003 95.73038684 -148.04296875 94.43359375 C-139.67415885 89.00666475 -131.28087634 83.61934991 -122.875 78.25 C-113.77312109 72.43483431 -104.7105202 66.56313754 -95.67211914 60.64990234 C-87.52980922 55.32965492 -79.34013342 50.08542119 -71.14257812 44.85083008 C-62.16044388 39.11201025 -53.22079014 33.30979712 -44.29052734 27.49072266 C-40.63558532 25.11201065 -36.97436959 22.74302871 -33.3125 20.375 C-32.28902466 19.71298584 -32.28902466 19.71298584 -31.24487305 19.03759766 C-27.62218977 16.694697 -23.99870525 14.35303834 -20.375 12.01171875 C-19.61147217 11.51816895 -18.84794434 11.02461914 -18.0612793 10.51611328 C-16.60986032 9.57791454 -15.15821647 8.64006355 -13.70629883 7.70263672 C-13.04654053 7.27611816 -12.38678223 6.84959961 -11.70703125 6.41015625 C-11.08006348 6.00555176 -10.4530957 5.60094727 -9.80712891 5.18408203 C-8.0650063 4.04259397 -6.35161495 2.86540459 -4.63671875 1.68359375 C-2 0 -2 0 0 0 Z " fill="#FF1E00" transform="translate(258,0)"/>
</svg>
