<svg width="16" height="16" viewBox="0 0 16 16" fill="none" xmlns="http://www.w3.org/2000/svg">
<path d="M13.0001 6.00023C13.0001 5.8519 13.0441 5.70689 13.1265 5.58356C13.2089 5.46022 13.326 5.36409 13.4631 5.30732C13.6001 5.25056 13.7509 5.23571 13.8964 5.26464C14.0419 5.29358 14.1755 5.36501 14.2804 5.4699C14.3853 5.57479 14.4567 5.70843 14.4857 5.85392C14.5146 5.9994 14.4998 6.1502 14.443 6.28725C14.3862 6.42429 14.2901 6.54142 14.1668 6.62384C14.0434 6.70625 13.8984 6.75023 13.7501 6.75023C13.5512 6.75023 13.3604 6.67122 13.2198 6.53056C13.0791 6.38991 13.0001 6.19915 13.0001 6.00023ZM12.2501 4.50023C12.3984 4.50023 12.5434 4.45625 12.6668 4.37384C12.7901 4.29143 12.8862 4.17429 12.943 4.03725C12.9998 3.9002 13.0146 3.7494 12.9857 3.60392C12.9567 3.45843 12.8853 3.32479 12.7804 3.2199C12.6755 3.11501 12.5419 3.04358 12.3964 3.01464C12.2509 2.98571 12.1001 3.00056 11.9631 3.05732C11.826 3.11409 11.7089 3.21022 11.6265 3.33356C11.5441 3.45689 11.5001 3.6019 11.5001 3.75023C11.5001 3.94915 11.5791 4.13991 11.7198 4.28056C11.8604 4.42122 12.0512 4.50023 12.2501 4.50023ZM14.0413 8.00023C13.9092 7.98934 13.7782 8.03134 13.6771 8.11702C13.5759 8.20269 13.513 8.32502 13.502 8.45711C13.4125 9.5024 13.0263 10.5004 12.3889 11.3336C11.7515 12.1669 10.8893 12.8008 9.90387 13.1607C8.91842 13.5206 7.85068 13.5915 6.82628 13.3652C5.80188 13.1388 4.86344 12.6246 4.12137 11.883C3.37931 11.1414 2.86449 10.2033 2.6375 9.17901C2.41051 8.15475 2.48078 7.08697 2.84005 6.10129C3.19933 5.11562 3.83265 4.25306 4.66551 3.61512C5.49837 2.97717 6.49611 2.59037 7.54134 2.50023C7.607 2.49482 7.67096 2.47652 7.72955 2.44639C7.78814 2.41626 7.84022 2.37488 7.88281 2.32462C7.92541 2.27436 7.9577 2.2162 7.97782 2.15347C7.99794 2.09073 8.00551 2.02464 8.00009 1.95898C7.99468 1.89332 7.97638 1.82937 7.94625 1.77078C7.91612 1.71219 7.87474 1.66011 7.82448 1.61751C7.77422 1.57491 7.71606 1.54263 7.65333 1.52251C7.59059 1.50239 7.5245 1.49482 7.45884 1.50023C6.22386 1.60646 5.0449 2.0632 4.06068 2.81671C3.07646 3.57022 2.32791 4.58915 1.90311 5.75363C1.47831 6.91811 1.39493 8.17969 1.66277 9.38995C1.93062 10.6002 2.53855 11.7088 3.41504 12.5853C4.29153 13.4618 5.40012 14.0697 6.61037 14.3376C7.82063 14.6054 9.08222 14.522 10.2467 14.0972C11.4112 13.6724 12.4301 12.9239 13.1836 11.9396C13.9371 10.9554 14.3939 9.77647 14.5001 8.54148C14.5057 8.47578 14.4983 8.40961 14.4783 8.34678C14.4583 8.28394 14.426 8.2257 14.3834 8.17539C14.3407 8.12508 14.2885 8.08371 14.2298 8.05365C14.1711 8.02358 14.1071 8.00543 14.0413 8.00023ZM8.00009 3.50023C8.89011 3.50023 9.76014 3.76415 10.5002 4.25862C11.2402 4.75309 11.817 5.45589 12.1576 6.27816C12.4981 7.10043 12.5873 8.00523 12.4136 8.87814C12.24 9.75105 11.8114 10.5529 11.1821 11.1822C10.5527 11.8116 9.75091 12.2401 8.878 12.4138C8.00509 12.5874 7.10029 12.4983 6.27802 12.1577C5.45575 11.8171 4.75295 11.2403 4.25848 10.5003C3.76401 9.76028 3.50009 8.89025 3.50009 8.00023C3.50142 6.80717 3.97595 5.66334 4.81957 4.81972C5.6632 3.97609 6.80703 3.50156 8.00009 3.50023ZM7.50009 8.00023C7.50009 8.13284 7.55277 8.26002 7.64654 8.35379C7.74031 8.44756 7.86749 8.50023 8.00009 8.50023H11.0001C11.1327 8.50023 11.2599 8.44756 11.3536 8.35379C11.4474 8.26002 11.5001 8.13284 11.5001 8.00023C11.5001 7.86763 11.4474 7.74045 11.3536 7.64668C11.2599 7.55291 11.1327 7.50023 11.0001 7.50023H8.50009V5.00023C8.50009 4.86763 8.44742 4.74045 8.35365 4.64668C8.25988 4.55291 8.1327 4.50023 8.00009 4.50023C7.86749 4.50023 7.74031 4.55291 7.64654 4.64668C7.55277 4.74045 7.50009 4.86763 7.50009 5.00023V8.00023ZM10.0001 3.00023C10.1484 3.00023 10.2934 2.95625 10.4168 2.87384C10.5401 2.79142 10.6362 2.67429 10.693 2.53725C10.7498 2.4002 10.7646 2.2494 10.7357 2.10392C10.7067 1.95843 10.6353 1.82479 10.5304 1.7199C10.4255 1.61501 10.2919 1.54358 10.1464 1.51464C10.0009 1.48571 9.85013 1.50056 9.71308 1.55732C9.57604 1.61409 9.4589 1.71022 9.37649 1.83356C9.29408 1.95689 9.25009 2.1019 9.25009 2.25023C9.25009 2.44915 9.32911 2.63991 9.46976 2.78056C9.61042 2.92122 9.80118 3.00023 10.0001 3.00023Z" fill="#0A0A0A"/>
</svg>
