<svg width="8" height="8" viewBox="0 0 8 8" fill="none" xmlns="http://www.w3.org/2000/svg">
<path d="M6.36364 4.72727H5.45455V3.27273H6.36364C6.68728 3.27273 7.00365 3.17676 7.27275 2.99695C7.54185 2.81714 7.75159 2.56158 7.87544 2.26257C7.99929 1.96357 8.0317 1.63455 7.96856 1.31713C7.90542 0.999702 7.74957 0.70813 7.52072 0.47928C7.29187 0.250431 7.0003 0.0945824 6.68288 0.031443C6.36545 -0.0316964 6.03643 0.000709003 5.73743 0.124561C5.43842 0.248414 5.18286 0.458151 5.00305 0.727249C4.82324 0.996348 4.72727 1.31272 4.72727 1.63636V2.54545H3.27273V1.63636C3.27273 1.31272 3.17676 0.996348 2.99695 0.727249C2.81714 0.458151 2.56158 0.248414 2.26257 0.124561C1.96357 0.000709003 1.63455 -0.0316964 1.31713 0.031443C0.999702 0.0945824 0.70813 0.250431 0.47928 0.47928C0.250431 0.70813 0.0945824 0.999702 0.031443 1.31713C-0.0316964 1.63455 0.000709003 1.96357 0.124561 2.26257C0.248414 2.56158 0.458151 2.81714 0.727249 2.99695C0.996348 3.17676 1.31272 3.27273 1.63636 3.27273H2.54545V4.72727H1.63636C1.31272 4.72727 0.996348 4.82324 0.727249 5.00305C0.458151 5.18286 0.248414 5.43842 0.124561 5.73743C0.000709003 6.03643 -0.0316964 6.36545 0.031443 6.68288C0.0945824 7.0003 0.250431 7.29187 0.47928 7.52072C0.70813 7.74957 0.999702 7.90542 1.31713 7.96856C1.63455 8.0317 1.96357 7.99929 2.26257 7.87544C2.56158 7.75159 2.81714 7.54185 2.99695 7.27275C3.17676 7.00365 3.27273 6.68728 3.27273 6.36364V5.45455H4.72727V6.36364C4.72727 6.68728 4.82324 7.00365 5.00305 7.27275C5.18286 7.54185 5.43842 7.75159 5.73743 7.87544C6.03643 7.99929 6.36545 8.0317 6.68288 7.96856C7.0003 7.90542 7.29187 7.74957 7.52072 7.52072C7.74957 7.29187 7.90542 7.0003 7.96856 6.68288C8.0317 6.36545 7.99929 6.03643 7.87544 5.73743C7.75159 5.43842 7.54185 5.18286 7.27275 5.00305C7.00365 4.82324 6.68728 4.72727 6.36364 4.72727ZM5.45455 1.63636C5.45455 1.45656 5.50786 1.2808 5.60775 1.1313C5.70765 0.981801 5.84963 0.865281 6.01574 0.796474C6.18186 0.727667 6.36465 0.709664 6.54099 0.744741C6.71734 0.779819 6.87932 0.866401 7.00646 0.99354C7.1336 1.12068 7.22018 1.28266 7.25526 1.45901C7.29034 1.63536 7.27233 1.81814 7.20353 1.98426C7.13472 2.15037 7.0182 2.29235 6.8687 2.39225C6.7192 2.49214 6.54344 2.54545 6.36364 2.54545H5.45455V1.63636ZM0.727273 1.63636C0.727273 1.39526 0.823052 1.16403 0.99354 0.99354C1.16403 0.823052 1.39526 0.727273 1.63636 0.727273C1.87747 0.727273 2.1087 0.823052 2.27919 0.99354C2.44968 1.16403 2.54545 1.39526 2.54545 1.63636V2.54545H1.63636C1.39526 2.54545 1.16403 2.44968 0.99354 2.27919C0.823052 2.1087 0.727273 1.87747 0.727273 1.63636ZM2.54545 6.36364C2.54545 6.54344 2.49214 6.7192 2.39225 6.8687C2.29235 7.0182 2.15037 7.13472 1.98426 7.20353C1.81814 7.27233 1.63536 7.29034 1.45901 7.25526C1.28266 7.22018 1.12068 7.1336 0.99354 7.00646C0.866401 6.87932 0.779819 6.71734 0.744741 6.54099C0.709664 6.36465 0.727667 6.18186 0.796474 6.01574C0.865281 5.84963 0.981801 5.70765 1.1313 5.60775C1.2808 5.50786 1.45656 5.45455 1.63636 5.45455H2.54545V6.36364ZM3.27273 3.27273H4.72727V4.72727H3.27273V3.27273ZM6.36364 7.27273C6.12253 7.27273 5.8913 7.17695 5.72081 7.00646C5.55032 6.83597 5.45455 6.60474 5.45455 6.36364V5.45455H6.36364C6.60474 5.45455 6.83597 5.55032 7.00646 5.72081C7.17695 5.8913 7.27273 6.12253 7.27273 6.36364C7.27273 6.60474 7.17695 6.83597 7.00646 7.00646C6.83597 7.17695 6.60474 7.27273 6.36364 7.27273Z" fill="#3A494F" fill-opacity="0.6"/>
</svg>
