<svg width="97" height="20" viewBox="0 0 97 20" fill="none" xmlns="http://www.w3.org/2000/svg">
<path d="M6.2329 5.35821L5.42712 8.31027L10.0392 5.34141L7.02282 16.5436L10.0863 16.5462L14.5424 0" fill="#3395FF"/>
<path d="M1.26878 11.8367L0 16.5461H6.27891L8.84818 6.96579L1.26878 11.8367ZM23.0795 7.69043C22.926 8.25823 22.6303 8.6753 22.1893 8.94163C21.7493 9.20746 21.1318 9.34088 20.3347 9.34088H17.8023L18.6914 6.04101H21.2239C22.0199 6.04101 22.5668 6.17341 22.8636 6.44331C23.1603 6.7132 23.2319 7.12569 23.0795 7.69603V7.69043ZM25.7014 7.62474C26.0237 6.43312 25.8907 5.51649 25.3013 4.87485C24.713 4.2383 23.6806 3.91748 22.2072 3.91748H16.5555L13.1533 16.5517H15.8991L17.2702 11.4593H19.071C19.4752 11.4593 19.7934 11.5255 20.0257 11.6528C20.2585 11.7852 20.3951 12.0144 20.437 12.3454L20.9271 16.5517H23.8689L23.392 12.6306C23.2948 11.7547 22.8922 11.2403 22.1847 11.0876C23.0866 10.8279 23.8423 10.395 24.4511 9.7941C25.0556 9.19759 25.4876 8.44997 25.7014 7.62983V7.62474ZM32.3758 12.0297C32.1456 12.8852 31.7926 13.5319 31.3152 13.9851C30.8374 14.4384 30.2665 14.6624 29.6003 14.6624C28.922 14.6624 28.462 14.4435 28.219 14.0004C27.9755 13.5574 27.9673 12.9157 28.1934 12.0755C28.4196 11.2352 28.7802 10.5783 29.2765 10.1047C29.7728 9.63114 30.3529 9.39435 31.019 9.39435C31.6841 9.39435 32.1394 9.6235 32.3697 10.0783C32.605 10.535 32.6101 11.1884 32.3799 12.0388L32.3758 12.0297ZM33.5791 7.55854L33.2353 8.83673C33.0869 8.37841 32.7989 8.01176 32.3732 7.73677C31.9466 7.46688 31.4186 7.32938 30.7888 7.32938C30.0163 7.32938 29.2745 7.52798 28.5633 7.92519C27.8522 8.3224 27.228 8.88256 26.696 9.60568C26.1639 10.3288 25.7751 11.1487 25.5244 12.0704C25.2788 12.9972 25.2277 13.8069 25.376 14.5097C25.5295 15.2175 25.8518 15.7573 26.3481 16.1341C26.8495 16.5161 27.489 16.7045 28.2717 16.7045C28.8937 16.7076 29.5087 16.5737 30.0726 16.3124C30.6301 16.0621 31.1259 15.6936 31.5255 15.2328L31.1674 16.5649H33.8226L36.2471 7.56312H33.5868L33.5791 7.55854ZM45.7885 7.55854H38.0669L37.5271 9.56494H42.02L36.0803 14.6726L35.5728 16.5568H43.5436L44.0833 14.5504H39.2691L45.2999 9.36634L45.7885 7.55854ZM52.5852 12.0144C52.3462 12.9005 51.9917 13.5665 51.5236 14.0004C51.0555 14.4384 50.4886 14.6573 49.823 14.6573C48.4314 14.6573 47.9741 13.7763 48.4488 12.0144C48.6842 11.1385 49.0403 10.48 49.516 10.0365C49.9918 9.59142 50.5684 9.36939 51.2463 9.36939C51.9114 9.36939 52.3606 9.58989 52.5918 10.034C52.823 10.477 52.821 11.1375 52.5852 12.0134V12.0144ZM54.1394 7.89718C53.528 7.51831 52.7478 7.32887 51.7963 7.32887C50.8329 7.32887 49.9412 7.51729 49.1206 7.89413C48.3034 8.26861 47.5852 8.82762 47.023 9.52675C46.4449 10.2346 46.029 11.0647 45.7737 12.0118C45.523 12.9555 45.4923 13.784 45.6867 14.4934C45.8811 15.2012 46.2904 15.7461 46.9043 16.1229C47.5234 16.5028 48.3112 16.6917 49.2782 16.6917C50.2297 16.6917 51.1148 16.5013 51.9283 16.1224C52.7417 15.7415 53.4375 15.2007 54.0156 14.4878C54.5937 13.7779 55.0081 12.9499 55.2639 12.0027C55.5197 11.0555 55.5504 10.2285 55.356 9.51758C55.1616 8.80974 54.7574 8.26485 54.1486 7.88547L54.1394 7.89718ZM63.6184 9.96317L64.2988 7.51373C64.0686 7.3966 63.7668 7.33549 63.3882 7.33549C62.7794 7.33549 62.1961 7.48521 61.6334 7.78871C61.1494 8.04639 60.7381 8.40999 60.3902 8.86525L60.7432 7.54632L59.9722 7.54937H58.0793L55.6389 16.5476H58.3315L59.5977 11.8438C59.7819 11.1599 60.1134 10.6216 60.5917 10.2397C61.0675 9.85623 61.661 9.66424 62.3772 9.66424C62.8172 9.66424 63.2265 9.76456 63.6153 9.96469L63.6184 9.96317ZM71.1103 12.0577C70.8801 12.8979 70.5322 13.5396 70.0564 13.9826C69.5806 14.4277 69.0076 14.6497 68.3425 14.6497C67.6775 14.6497 67.2221 14.4256 66.9817 13.9775C66.7361 13.5268 66.731 12.8775 66.9612 12.0241C67.1914 11.1711 67.5444 10.5167 68.0305 10.0635C68.5165 9.6067 69.0895 9.37856 69.7546 9.37856C70.4094 9.37856 70.8494 9.61281 71.0847 10.0864C71.3201 10.56 71.3252 11.2169 71.0991 12.0572L71.1103 12.0577ZM72.9818 7.91195C72.4829 7.51475 71.846 7.31614 71.0735 7.31614C70.3966 7.31614 69.7515 7.46891 69.1396 7.77751C68.5282 8.0856 68.032 8.50572 67.6508 9.03737L67.6601 8.97626L68.1118 7.5453H65.4822L64.812 10.0355L64.7915 10.122L62.0288 20.3802H64.725L66.1166 15.2165C66.2547 15.6758 66.5361 16.0364 66.9658 16.2971C67.3956 16.5568 67.9261 16.6856 68.5569 16.6856C69.3396 16.6856 70.0866 16.4972 70.7952 16.1204C71.5063 15.7425 72.1202 15.1987 72.642 14.4959C73.1639 13.7932 73.5512 12.9784 73.7983 12.0566C74.049 11.1334 74.1001 10.31 73.9569 9.58938C73.8111 8.86779 73.4882 8.30916 72.9899 7.91399L72.9818 7.91195ZM81.9251 12.021C81.6949 12.8714 81.3419 13.5233 80.8661 13.9714C80.3903 14.4226 79.8173 14.6471 79.1522 14.6471C78.4718 14.6471 78.0113 14.4282 77.7709 13.9851C77.5253 13.5421 77.5202 12.9005 77.7453 12.0602C77.9704 11.22 78.3295 10.563 78.8258 10.0895C79.3221 9.61586 79.9027 9.37958 80.5688 9.37958C81.2339 9.37958 81.6841 9.60874 81.9195 10.062C82.1548 10.5167 82.1563 11.1701 81.9271 12.0225L81.9251 12.021ZM83.1274 7.54734L82.7831 8.82553C82.6347 8.36466 82.3482 7.99801 81.9236 7.72557C81.4938 7.45364 80.9669 7.31818 80.3376 7.31818C79.5651 7.31818 78.8192 7.51678 78.107 7.91399C77.3959 8.31119 76.7717 8.8683 76.2396 9.58938C75.7076 10.3105 75.3188 11.1324 75.0681 12.0541C74.8199 12.9794 74.7713 13.7906 74.9197 14.4964C75.0696 15.1992 75.3924 15.742 75.8918 16.1209C76.3901 16.4977 77.0326 16.6882 77.8154 16.6882C78.4447 16.6882 79.0458 16.5578 79.6162 16.2961C80.1724 16.0446 80.667 15.6757 81.0656 15.2149L80.7075 16.5481H83.3627L85.7867 7.54988H83.1315L83.1274 7.54734ZM96.934 7.55039L96.9355 7.54785H95.3035C95.2513 7.54785 95.2053 7.55039 95.1577 7.55141H94.311L93.8761 8.15231L93.7687 8.2949L93.7227 8.36619L90.2821 13.1367L89.571 7.55039H86.7531L88.1805 16.0394L85.029 20.3832H87.8377L88.6 19.3072C88.6215 19.2756 88.6409 19.2491 88.6665 19.2155L89.5567 17.9577L89.5823 17.9221L93.5692 12.295L96.9304 7.55905L96.9355 7.55599H96.934V7.55039Z" fill="#0C2651"/>
</svg>
