<svg width="12" height="12" viewBox="0 0 12 12" fill="none" xmlns="http://www.w3.org/2000/svg">
<path d="M5.11449 2.09969C6.45406 1.7966 7.85545 2.20195 8.82637 3.17335C8.83006 3.17705 8.83381 3.18069 8.83762 3.18426L10.2629 4.49988H8.5C8.22386 4.49988 8 4.72374 8 4.99988C8 5.27602 8.22386 5.49988 8.5 5.49988H11.5C11.7761 5.49988 12 5.27602 12 4.99988V1.99988C12 1.72374 11.7761 1.49988 11.5 1.49988C11.2239 1.49988 11 1.72374 11 1.99988V3.81947L9.52795 2.46073C8.31453 1.25059 6.56565 0.74607 4.89381 1.12434C3.21935 1.50321 1.85636 2.71465 1.28365 4.33309C1.19153 4.59341 1.32788 4.87913 1.58821 4.97125C1.84853 5.06337 2.13424 4.92701 2.22636 4.66669C2.68453 3.37194 3.77493 2.40278 5.11449 2.09969Z" fill="#7D7D7D" fill-opacity="0.88"/>
<path d="M1 8.1803V9.99988C1 10.276 0.776142 10.4999 0.5 10.4999C0.223858 10.4999 0 10.276 0 9.99988V6.99988C0 6.72374 0.223858 6.49988 0.5 6.49988H3.5C3.77614 6.49988 4 6.72374 4 6.99988C4 7.27602 3.77614 7.49988 3.5 7.49988H1.73712L3.16239 8.81551C3.1662 8.81909 3.16995 8.82273 3.17364 8.82642C4.14456 9.79783 5.54595 10.2032 6.88552 9.90009C8.22508 9.59699 9.31547 8.62784 9.77364 7.33309C9.86576 7.07277 10.1515 6.93641 10.4118 7.02853C10.6721 7.12065 10.8085 7.40636 10.7164 7.66669C10.1436 9.28512 8.78065 10.4966 7.1062 10.8754C5.43436 11.2537 3.68548 10.7492 2.47205 9.53904L1 8.1803Z" fill="#7D7D7D" fill-opacity="0.88"/>
</svg>
