<svg width="19" height="21" viewBox="0 0 19 21" fill="none" xmlns="http://www.w3.org/2000/svg">
<g filter="url(#filter0_d_501_8280)">
<path d="M4.34641 6.84644L8.84641 2.34644C8.89285 2.29996 8.94799 2.26308 9.00869 2.23791C9.06939 2.21275 9.13445 2.1998 9.20016 2.1998C9.26587 2.1998 9.33093 2.21275 9.39163 2.23791C9.45233 2.26308 9.50748 2.29996 9.55391 2.34644L14.0539 6.84645C14.1477 6.94027 14.2004 7.06751 14.2004 7.2002C14.2004 7.33288 14.1477 7.46012 14.0539 7.55395C13.9601 7.64777 13.8328 7.70047 13.7002 7.70047C13.5675 7.70047 13.4402 7.64777 13.3464 7.55395L9.70016 3.90707L9.70016 13.7002C9.70016 13.8328 9.64748 13.96 9.55371 14.0537C9.45995 14.1475 9.33277 14.2002 9.20016 14.2002C9.06755 14.2002 8.94038 14.1475 8.84661 14.0537C8.75284 13.96 8.70016 13.8328 8.70016 13.7002L8.70016 3.90707L5.05391 7.55394C4.96009 7.64777 4.83284 7.70047 4.70016 7.70047C4.56748 7.70047 4.44023 7.64777 4.34641 7.55394C4.25259 7.46012 4.19988 7.33288 4.19988 7.20019C4.19988 7.06751 4.25259 6.94026 4.34641 6.84644Z" fill="white"/>
<path d="M9.20044 14.2998C9.04131 14.2998 8.88816 14.2365 8.77563 14.124C8.66333 14.0115 8.59985 13.8592 8.59985 13.7002L8.59985 4.14941L5.12427 7.625C5.01179 7.73729 4.85938 7.80071 4.70044 7.80078C4.5413 7.80078 4.3882 7.73749 4.27564 7.625C4.16306 7.51242 4.09985 7.3594 4.09985 7.20019C4.09985 7.04099 4.16306 6.88796 4.27564 6.77539L8.77564 2.27539C8.83123 2.21978 8.89735 2.17567 8.96997 2.14551C9.04281 2.11531 9.12159 2.09961 9.20044 2.09961C9.27919 2.09965 9.35718 2.11535 9.42993 2.14551C9.5026 2.17563 9.56863 2.21979 9.62427 2.27539L14.1243 6.77539C14.2368 6.88796 14.3 7.04099 14.3 7.2002C14.3 7.3594 14.2368 7.51243 14.1243 7.625C14.0118 7.73729 13.8594 7.80071 13.7004 7.80078C13.5413 7.80078 13.3882 7.73749 13.2756 7.625L9.80005 4.14941L9.80005 13.7002C9.80005 13.8593 9.7367 14.0115 9.62427 14.124C9.51181 14.2365 9.35947 14.2997 9.20044 14.2998Z" stroke="white" stroke-width="0.2"/>
</g>
<defs>
<filter id="filter0_d_501_8280" x="0" y="0" width="18.4004" height="20.4004" filterUnits="userSpaceOnUse" color-interpolation-filters="sRGB">
<feFlood flood-opacity="0" result="BackgroundImageFix"/>
<feColorMatrix in="SourceAlpha" type="matrix" values="0 0 0 0 0 0 0 0 0 0 0 0 0 0 0 0 0 0 127 0" result="hardAlpha"/>
<feOffset dy="2"/>
<feGaussianBlur stdDeviation="2"/>
<feComposite in2="hardAlpha" operator="out"/>
<feColorMatrix type="matrix" values="0 0 0 0 0 0 0 0 0 0 0 0 0 0 0 0 0 0 0.1 0"/>
<feBlend mode="normal" in2="BackgroundImageFix" result="effect1_dropShadow_501_8280"/>
<feBlend mode="normal" in="SourceGraphic" in2="effect1_dropShadow_501_8280" result="shape"/>
</filter>
</defs>
</svg>
