<svg width="16" height="16" viewBox="0 0 16 16" fill="none" xmlns="http://www.w3.org/2000/svg">
<path d="M9.33284 6.33366C10.3454 6.33366 11.1662 5.51285 11.1662 4.50033C11.1662 3.4878 10.3454 2.66699 9.33284 2.66699C8.32032 2.66699 7.49951 3.4878 7.49951 4.50033C7.49951 5.51285 8.32032 6.33366 9.33284 6.33366Z" stroke="#090E13" stroke-linecap="round" stroke-linejoin="round"/>
<path d="M8.35463 2.94975C8.0755 2.29358 7.4249 1.8335 6.66683 1.8335C5.65431 1.8335 4.8335 2.65431 4.8335 3.66683C4.8335 4.67935 5.65431 5.50016 6.66683 5.50016C7.02676 5.50016 7.3625 5.39644 7.6457 5.21724" stroke="#090E13" stroke-linecap="round" stroke-linejoin="round"/>
<path d="M2.49976 13.5006H3.18726C3.18726 13.5006 5.65999 14.3371 7.31229 14.1652C9.07562 13.9817 11.9344 12.2872 13.0415 11.5941C13.3308 11.413 13.4998 11.0956 13.4998 10.7544C13.4998 10.0666 12.8324 9.5765 12.1762 9.78223L7.33309 11.3006" stroke="#090E13" stroke-linecap="round" stroke-linejoin="round"/>
<path d="M2.49976 9.6273L4.67625 8.84823C5.31288 8.62036 5.99144 8.5335 6.66494 8.59376L9.43016 8.84123C9.63902 8.85996 9.77895 9.0645 9.72069 9.2659L9.71129 9.2983C9.46489 10.15 8.81129 10.8236 7.96735 11.0955L7.33309 11.2998" stroke="#090E13" stroke-linecap="round" stroke-linejoin="round"/>
</svg>
