<svg width="16" height="16" viewBox="0 0 16 16" fill="none" xmlns="http://www.w3.org/2000/svg">
<path d="M6.49984 9.16683H9.49984M6.6665 6.10018L7.4665 6.90016L9.33317 5.03352M3.1665 3.16683V13.2689C3.1665 13.5226 3.4387 13.6833 3.66086 13.5608L5.28153 12.6666C5.47074 12.5622 5.69881 12.556 5.89342 12.65L7.71004 13.5269C7.8931 13.6153 8.10657 13.6153 8.28964 13.5269L10.1062 12.65C10.3008 12.556 10.5289 12.5622 10.7182 12.6666L12.3388 13.5608C12.561 13.6833 12.8332 13.5226 12.8332 13.2689V3.16683C12.8332 2.43045 12.2362 1.8335 11.4998 1.8335H4.49984C3.76346 1.8335 3.1665 2.43045 3.1665 3.16683Z" stroke="#090E13" stroke-linecap="round" stroke-linejoin="round"/>
</svg>
