<svg width="13" height="13" viewBox="0 0 13 13" fill="none" xmlns="http://www.w3.org/2000/svg">
<path d="M10.4829 6.11735C10.5201 6.1545 10.5496 6.19862 10.5697 6.24717C10.5899 6.29573 10.6002 6.34778 10.6002 6.40035C10.6002 6.45292 10.5899 6.50497 10.5697 6.55353C10.5496 6.60209 10.5201 6.6462 10.4829 6.68335L6.38042 10.7834C5.85522 11.3085 5.14293 11.6035 4.40024 11.6034C3.65755 11.6034 2.9453 11.3083 2.42017 10.7831C1.89504 10.2579 1.60005 9.54562 1.6001 8.80292C1.60014 8.06023 1.89522 7.34798 2.42042 6.82285L7.38342 1.78685C7.75837 1.4115 8.26707 1.20048 8.79761 1.2002C9.32815 1.19991 9.83707 1.4104 10.2124 1.78535C10.5878 2.1603 10.7988 2.669 10.7991 3.19954C10.7994 3.73008 10.5889 4.239 10.2139 4.61435L5.24992 9.65035C5.02448 9.87578 4.71873 10.0024 4.39992 10.0024C4.08111 10.0024 3.77535 9.87578 3.54992 9.65035C3.32448 9.42492 3.19784 9.11916 3.19784 8.80035C3.19784 8.48154 3.32448 8.17579 3.54992 7.95035L7.71492 3.71935C7.7514 3.68043 7.7953 3.6492 7.84404 3.6275C7.89277 3.6058 7.94536 3.59407 7.99869 3.59299C8.05203 3.59192 8.10505 3.60153 8.15461 3.62125C8.20418 3.64097 8.24931 3.67041 8.28733 3.70783C8.32535 3.74525 8.3555 3.7899 8.37601 3.83915C8.39652 3.8884 8.40697 3.94125 8.40674 3.9946C8.40652 4.04795 8.39562 4.10071 8.3747 4.14978C8.35378 4.19886 8.32325 4.24325 8.28492 4.28035L4.11942 8.51585C4.08212 8.55285 4.05248 8.59683 4.03218 8.64529C4.01188 8.69375 4.00133 8.74573 4.00112 8.79826C4.00091 8.85079 4.01105 8.90286 4.03096 8.95147C4.05088 9.00009 4.08017 9.04431 4.11717 9.0816C4.15417 9.1189 4.19815 9.14854 4.24661 9.16884C4.29506 9.18913 4.34704 9.19969 4.39958 9.1999C4.45211 9.20011 4.50417 9.18997 4.55279 9.17005C4.6014 9.15014 4.64562 9.12085 4.68292 9.08385L9.64642 4.05035C9.87185 3.82538 9.99868 3.52007 9.99901 3.20159C9.99934 2.8831 9.87314 2.57753 9.64817 2.3521C9.4232 2.12667 9.11789 1.99983 8.79941 1.99951C8.48092 1.99918 8.17535 2.12538 7.94992 2.35035L2.98792 7.38435C2.80203 7.56994 2.65452 7.79033 2.55381 8.03293C2.45309 8.27553 2.40115 8.53559 2.40094 8.79826C2.40073 9.06093 2.45226 9.32108 2.55259 9.56384C2.65292 9.80659 2.80008 10.0272 2.98567 10.2131C3.17126 10.399 3.39164 10.5465 3.63424 10.6472C3.87684 10.7479 4.1369 10.7999 4.39958 10.8001C4.66225 10.8003 4.92239 10.7488 5.16515 10.6484C5.40791 10.5481 5.62853 10.4009 5.81442 10.2154L9.91742 6.11535C9.99269 6.04066 10.0945 5.99891 10.2006 5.99928C10.3066 5.99966 10.4082 6.04213 10.4829 6.11735Z" fill="#5C6264"/>
</svg>
