<svg width="16" height="16" viewBox="0 0 16 16" fill="none" xmlns="http://www.w3.org/2000/svg">
<path d="M15 8.00062C15 8.13323 14.9473 8.2604 14.8536 8.35417C14.7598 8.44794 14.6326 8.50062 14.5 8.50062H12.8087L10.4475 13.2244C10.4059 13.3074 10.342 13.3773 10.263 13.4261C10.184 13.4749 10.0929 13.5007 10 13.5006H9.975C9.87801 13.4958 9.78452 13.4629 9.70594 13.4058C9.62736 13.3488 9.5671 13.2701 9.5325 13.1794L5.95937 3.79812L3.955 8.20749C3.91529 8.29487 3.85127 8.36897 3.77059 8.42095C3.68991 8.47292 3.59597 8.50058 3.5 8.50062H1.5C1.36739 8.50062 1.24021 8.44794 1.14645 8.35417C1.05268 8.2604 1 8.13323 1 8.00062C1 7.86801 1.05268 7.74083 1.14645 7.64707C1.24021 7.5533 1.36739 7.50062 1.5 7.50062H3.17812L5.545 2.29374C5.5858 2.20389 5.65229 2.12812 5.73607 2.07598C5.81985 2.02384 5.91719 1.99766 6.01583 2.00073C6.11447 2.00381 6.20999 2.036 6.29036 2.09326C6.37074 2.15051 6.43237 2.23028 6.4675 2.32249L10.0619 11.76L12.0525 7.77812C12.0939 7.69482 12.1577 7.62471 12.2368 7.57569C12.3158 7.52667 12.407 7.50067 12.5 7.50062H14.5C14.6326 7.50062 14.7598 7.5533 14.8536 7.64707C14.9473 7.74083 15 7.86801 15 8.00062Z" fill="#090E13"/>
</svg>
