<svg width="24" height="24" viewBox="0 0 24 24" fill="none" xmlns="http://www.w3.org/2000/svg">
<path d="M21.75 9.75C21.9489 9.75 22.1397 9.67098 22.2803 9.53033C22.421 9.38968 22.5 9.19891 22.5 9V6C22.5 5.60218 22.342 5.22064 22.0607 4.93934C21.7794 4.65804 21.3978 4.5 21 4.5H3C2.60218 4.5 2.22064 4.65804 1.93934 4.93934C1.65804 5.22064 1.5 5.60218 1.5 6V9C1.5 9.19891 1.57902 9.38968 1.71967 9.53033C1.86032 9.67098 2.05109 9.75 2.25 9.75C2.84674 9.75 3.41903 9.98705 3.84099 10.409C4.26295 10.831 4.5 11.4033 4.5 12C4.5 12.5967 4.26295 13.169 3.84099 13.591C3.41903 14.0129 2.84674 14.25 2.25 14.25C2.05109 14.25 1.86032 14.329 1.71967 14.4697C1.57902 14.6103 1.5 14.8011 1.5 15V18C1.5 18.3978 1.65804 18.7794 1.93934 19.0607C2.22064 19.342 2.60218 19.5 3 19.5H21C21.3978 19.5 21.7794 19.342 22.0607 19.0607C22.342 18.7794 22.5 18.3978 22.5 18V15C22.5 14.8011 22.421 14.6103 22.2803 14.4697C22.1397 14.329 21.9489 14.25 21.75 14.25C21.1533 14.25 20.581 14.0129 20.159 13.591C19.7371 13.169 19.5 12.5967 19.5 12C19.5 11.4033 19.7371 10.831 20.159 10.409C20.581 9.98705 21.1533 9.75 21.75 9.75ZM3 15.675C3.84772 15.5029 4.60986 15.043 5.15728 14.3732C5.70471 13.7034 6.00376 12.865 6.00376 12C6.00376 11.135 5.70471 10.2966 5.15728 9.62681C4.60986 8.95705 3.84772 8.49714 3 8.325V6H8.25V18H3V15.675Z" fill="#FC2121"/>
</svg>
